<?xml version="1.0" encoding="UTF-8"?>
<svg id="Layer_1" data-name="Layer 1" xmlns="http://www.w3.org/2000/svg" version="1.1" viewBox="0 0 600 600">
  <defs>
    <style>
      .cls-1 {
        fill: none;
      }

      .cls-1, .cls-2, .cls-3, .cls-4, .cls-5, .cls-6 {
        stroke-width: 0px;
      }

      .cls-2 {
        fill: #000;
      }

      .cls-3 {
        fill: #d6c527;
      }

      .cls-4 {
        fill: #225066;
      }

      .cls-5 {
        fill: #3d7c9c;
      }

      .cls-6 {
        fill: #fff;
      }
    </style>
  </defs>
  <g>
    <path class="cls-2" d="M313.01,81.17c-7.51-.26-15.03-.18-22.56-.22-9.03-.05-17.97.4-26.77,1.51,10.43-3.56,21.16-5.95,32.11-7.54-.32-.07-.63-.23-.95-.21-15.46.83-30.65,3.24-45.5,7.68-22.97,6.88-43.69,17.27-62.19,31.05-8.8,6.09-16.97,12.74-24.54,19.93.55.31,1.07.75,1.52,1.39.43.49.86.99,1.29,1.48.1.11.18.22.26.33,3.61-3.25,7.38-6.35,11.29-9.3,41.09-31.02,87.1-44.55,137.66-40.28-.9-1.84-1.37-3.71-1.61-5.83Z"/>
    <path class="cls-2" d="M407.1,115.7c-.43.96-.99,1.83-1.72,2.61,4.05,2.69,8.02,5.55,11.93,8.57,5.63,4.36,10.99,9.06,16.48,13.6.24-.28.48-.55.72-.83-9.12-8-17.87-16.5-27.42-23.95Z"/>
    <path class="cls-2" d="M175.76,446.67c2.32-.22,4.68-.15,7.04-.23,2.31-.07,4.56-.51,6.82-.95-6.44-4.2-12.7-8.68-18.82-13.46-15.47-12.1-26.76-27.79-37.91-43.43-11.95-16.77-19.31-35.98-24.67-55.85-11.37-42.14-9.53-83.6,8.14-123.71,1.59-3.6,3.33-7.14,5.16-10.63-2.04.74-4.12,1.33-6.23,1.77-3.08,6.63-5.91,13.49-8.51,20.56-.36.98-.72,1.96-1.08,2.94,1.17-7.82,3-15.42,5.34-22.86-.87.08-1.75.14-2.63.16-3.21,7.53-5.95,15.24-8.14,23.19-10.42,37.78-9.77,75.49,1.65,112.86,12.98,42.46,34.96,79.23,70.38,106.99,1.15.9,2.3,1.78,3.45,2.65Z"/>
    <path class="cls-2" d="M378.7,469.24c-1.59-1.03-3.15-2.15-4.52-3.46-.38-.36-.66-.78-.9-1.21-.35.14-.69.28-1.03.42-11.91,4.66-24.27,7.79-37.1,8.65-3.41.23-6.94-.12-10.23.6-13.18,2.88-26.48,4.37-39.96,4.09-.68-.01-1.35-.05-2.03-.07,1.27,2.4,1.67,5.47,1.65,8.4,7.19.33,14.49.3,21.9-.14,26.53-1.56,50.73-7.3,72.67-16.99-.15-.1-.29-.19-.44-.29Z"/>
    <path class="cls-2" d="M465.82,179.76c.6-.6,1.32-1.08,2.1-1.39-7.67-11.32-16.59-21.56-26.95-30.61.62.89,1.31,1.73,2.05,2.52,8.59,9.24,16.21,19.06,22.79,29.47Z"/>
    <path class="cls-2" d="M502.72,275.81c-1.48-18.4-5.5-35.91-11.75-52.67-1.95.18-3.68-.05-5.19-.64.19.6.4,1.2.59,1.81,13.57,43.76,12.41,87.14-4.86,129.73-3.42,8.43-8.58,16.13-12.73,24.28-19.04,37.41-47.51,64.33-84.61,81.57.28.18.56.37.84.55,1.59,1.03,3.15,2.15,4.52,3.46.15.14.26.31.39.46,30.59-15.88,56.52-39.92,77.95-71.53,2.22-3.27,4.4-6.57,6.61-9.86.23.17.47.33.7.5-9.38,20.71-23.47,38.05-39.3,54.18,1-.6,1.83-1.33,2.66-2.07,23.78-21.13,40.29-47.11,50.9-76.92,9.53-26.78,15.6-54.11,13.28-82.84Z"/>
  </g>
  <g>
    <path class="cls-6" d="M424.72,222.64c-3.08-2.69-5.42-5.57-5.84-9.76-.41-4.05,0-8-1.41-11.9-2.49-6.89-8.36-11.78-15.07-14.36-7.9-3.03-17.3-3.29-25.64-2.41-5.05.53-12.81,1.8-16.68,5.97-11.01,2.06-21.47,5.87-31.87,9.92-.2.01-.39.03-.59.04-.46-.33-.98-.55-1.54-.64-3.84-.58-7.01-.22-10.42,1.74-.96.55-1.6,1.27-1.98,2.06-4.96,1.02-9.8,2.46-14.45,4.61-.53.83-1,1.45-1.66,2.23-1.36,1.84-2.76,3.65-4.19,5.45-1.39,1.74-2.4,3.53-3.35,5.4,1.21.95,2.77,1.48,4.3,1.14,11.7-2.63,22.82-7.09,33.97-11.46,8.15-.77,16.39-1.06,23.98-2.31,3.39-.56,4.21-4.28,3.03-6.96,2.43-.63,4.88-1.17,7.36-1.63.37.06.75.08,1.15.05.22-.01.42-.05.62-.08-.49.71-.9,1.52-1.19,2.47-1.34,4.35-1.01,9.44-.42,13.89.63,4.81,3.76,10.55,2.67,15.32-.64,2.81.86,5.1,3.46,6.1,8.97,3.47,17.94,6.94,26.92,10.4,8.65,3.34,15.72,6.92,24.91,3.61,6.24-2.24,15.08-3.99,16.09-11.79,1.11-8.57-6.7-12.34-12.16-17.1Z"/>
    <path class="cls-6" d="M423.51,157.77c-.76.03-1.53.05-2.3.07.03-.26.19-.73.44-1.54.51-1.66.83-3.25.52-4.99-.68-3.78-3.73-6.4-7.05-7.97-2.2-1.03-3.73-.52-2.16-3,1.14-1.81,3.24-2.66,4.55-4.29,2.12-2.65,1.01-6.34-2.04-7.67-1.65-.72-3.29-.62-5.06-.57-1.23.04-3.56-.29-4.56.27-.08,0-.14-.01-.21-.02-.04-.07-.08-.13-.13-.21-.03-.97-.84-2.41-.98-3.46-.16-1.19-.07-2.39-.28-3.58-.14-.76-.34-1.46-.64-2.13.18-2.52-1.94-4.87-4.58-4.36-.16-.15-.3-.3-.41-.46-.85-1.29-.51-2.88-1.85-4.18-2.28-2.21-4.93-1.7-7.65-1.44-.98-.97-2.09-1.79-2.86-2.96-1.12-1.7-.71-3.97-1.89-5.73-2.48-3.71-7.68-3.89-10.04.01-1.23,2.03-1.39,4.47-2.55,6.57-1.18,2.14-2.43,4.19-3.51,6.36.13-1.79.26-3.57.38-5.36.67-.65,1.07-1.56.97-2.69-.2-2.12-.14-4.35-.31-6.47.01-.17.02-.35.04-.52.06-.81-.1-1.48-.39-2.03-.56-2.61-1.82-4.88-4.85-6.32-2.43-1.16-4.92-.18-5.83,2.37-.92,2.57-1.45,5.25-1.84,7.96-.01-.19-.02-.38-.04-.56-.62-7.21-5.99-10.65-12.81-11.17-1.55-.12-3.59,1.3-3.83,2.91.04-.25-.99-.56-2.47-.88-1.72-1.21-3.82-1.91-6.42-1.8-.65.03-1.25.2-1.77.47-.97-.12-1.7-.2-1.97-.21-1.59-.06-2.73.78-3.35,1.96-2.65-.66-5.94,1.95-4.91,4.93,2.05,5.91,4.58,11.57,7.67,17.01.13.24.28.44.43.63,1.56,3.97,3.11,7.93,4.67,11.9-2.75-5.47-6.26-10.43-10.63-14.9-3.58-3.66-9.19,1.96-5.61,5.61,4.87,4.98,8.65,10.68,11.16,17.19.92,2.38,3.42,3.74,5.83,2.37,3.93-2.24,7.7-3.01,12.19-2.72,1.22.08,2.48-.65,3.25-1.7.36.53.82.98,1.31,1.22,4.78,2.25,9.61,4.38,14.46,6.45.02,0,.03.02.05.03,3.19,1.45,5.13,3.97,7.45,6.49,2.6,2.82,5.56,5.05,8.8,7.1,7.31,4.61,13.23,9.9,19.2,16.11,2.26,2.35,5.55.91,6.47-1.61,2.46-.36,5.26-.09,7.57-.18,2.5-.1,5-.19,7.5-.29.95.05,1.91,0,2.85-.11,4.91-.61,5.24-8.14,0-7.94ZM406.04,136.43c-.05-.19-.12-.39-.2-.59.24-.03.48-.06.73-.1-.18.22-.36.45-.53.69ZM359.42,127.66s0,.06.01.09c-.03-.01-.06-.03-.08-.04.02-.02.05-.03.07-.05Z"/>
    <path class="cls-6" d="M522.6,164.4c-21.46,10.7-44.93,15.26-68.37,19.62.57-.46,1.14-.91,1.71-1.37,3.97-3.25-1.67-8.77-5.61-5.61-7.34,6.01-15.72,10.21-24.86,12.69-4.86,1.32-2.93,8.5,1.85,7.69.02.24.06.47.13.7-.29,1.19-.12,2.45.63,3.34-.19.52-.29,1.06-.28,1.6-1.04,2.05-.4,5.02,2.34,5.76.53.14,1.07.27,1.6.41.15,1.49,1.03,2.86,2.79,3.23,3.88.82,7.77,1.52,11.68,2.15-.52,1.91.16,4.24,2.57,5.05,8.3,2.8,16.74,4.89,25.38,6.29,3.58.58,5.69-3.18,4.74-5.66,2.21.69,4.42,1.45,6.68,2.3,3.76,1.42,6.65-4.04,3.86-6.63-2.43-2.25-4.85-4.5-7.28-6.75,5.94-.13,11.89-.35,17.83-.68,3.22-.18,4.42-3.41,3.54-5.7,5.22-.47,10.41-1.23,15.59-2.28,5.07-1.03,2.84-8.42-2.11-7.65-2.03.32-4.06.61-6.09.89,1.24-2.71-.73-6.57-4.48-5.55-1.29.35-2.58.69-3.87,1.02,7.08-2.5,13.75-5.88,21.09-7.62,5-1.18,2.86-8.66-2.11-7.65-.44.09-.88.18-1.32.28,2.15-.95,4.29-1.94,6.41-3,4.57-2.28.56-9.13-4.01-6.85Z"/>
    <path class="cls-6" d="M423,222.82l6.76,3.36c1.46.73,3.52,1.31,4.26,2.87,2.18,4.62,9.02.59,6.85-4.01-1.09-2.31-3.2-3.75-5.42-4.88-2.8-1.43-5.63-2.8-8.44-4.2-4.56-2.27-8.59,4.58-4.01,6.85h0Z"/>
    <path class="cls-6" d="M360.27,139.07c-.62,2.17-1.32,4.3-2.21,6.39l5.43-1.42c-2.72-1.56-3.87-3.79-3.77-6.85.17-5.17-7.48-5.01-7.94,0-.2,2.22-.69,3.99-1.44,6.06l6.63-1.75c-3.18-2.77-5.28-6.02-7.02-9.85-1.58-3.49-7.85-1.85-7.4,2,.42,3.56,1.44,7.68,1.14,11.26l1.16-2.81-.6.51,4.81-.62c-1.25-.81-5.53-5.26-5.71-6.92l-7.8,1.06c.47,3.09.95,6.19,1.42,9.28.77,5.03,8.42,2.9,7.65-2.11-.47-3.09-.95-6.19-1.42-9.28-.67-4.37-8.29-3.4-7.8,1.06.57,5.2,5.34,10.99,9.64,13.78,1.56,1.01,3.5.5,4.81-.62,3.63-3.1,1.09-10.55.62-14.57l-7.4,2c1.99,4.38,4.61,8.28,8.26,11.45,2.35,2.05,5.58,1.15,6.63-1.75.98-2.7,1.47-5.32,1.72-8.17h-7.94c-.19,5.83,2.65,10.81,7.7,13.71,1.69.97,4.58.57,5.43-1.42,1.16-2.72,2.19-5.44,3.01-8.28,1.41-4.92-6.25-7.02-7.65-2.11h0Z"/>
    <path class="cls-6" d="M390.78,251.22l4.91-.33c2.07-.14,4.07-1.73,3.97-3.97-.09-2.03-1.75-4.12-3.97-3.97l-4.91.33c-2.07.14-4.07,1.73-3.97,3.97.09,2.03,1.75,4.12,3.97,3.97h0Z"/>
    <path class="cls-2" d="M481.53,212.2c.37.96.74,1.92,1.09,2.88,1.82.04,3.63.2,5.44.41-.41-1.16-.83-2.32-1.25-3.47-1.76.04-3.52.12-5.27.18Z"/>
    <g>
      <path class="cls-1" d="M354.41,136.56v10.65c2.79-3.21,2.77-8.95,0-10.65Z"/>
      <path class="cls-1" d="M367.98,93.68c-.99-1.74-3.32-3.81-5.52-3.51-3.67.51-4.58,7.58-4.93,10.42-.52,4.14-.38,8.31-.71,12.46-.51,6.5-.91,13.01-1.48,19.5-.13,1.48.46,2.08,1.74,2.6.82.33,2.4,1.16,3.3.72.02-.01.04-.02.06-.04.26-.18.27-.57.39-.86.39-1,.61-2.09.89-3.12,1.99-7.14,3.88-14.32,5.76-21.49,1.33-5.07,3.3-11.76.49-16.69Z"/>
      <path class="cls-1" d="M413.09,144.9c-5.42,0-10.95,2.48-16.05,4.12-3.92,1.26-8.93,2.17-12.43,4.3-.43.26,4.86,3.59,5.48,3.68.02.26.3.44.79.54,4.2.89,23.84-3.49,26.13-4.44,7.19-2.98,1.46-8.2-3.91-8.2Z"/>
      <path class="cls-1" d="M390.71,147.61c3.35-1.35,6.71-2.67,10.08-3.96,5.33-2.05,11.85-3.56,15.93-7.85.8-.85,1.51-1.91,1.46-3.08-.05-1.18-.87-2.21-1.86-2.86-2.05-1.34-4.74-1.31-7.05-.8-5.78,1.29-10.77,5.98-15.78,8.98-2.98,1.78-5.96,3.57-8.94,5.35-1.01.6-7.64,5.46-8.44,5.05,2.26,1.15,4.11,2.1,5.9,3.02.26.13,3.31-1.65,3.68-1.82,1.65-.73,3.35-1.37,5.02-2.04Z"/>
      <path class="cls-1" d="M394.54,133.39c2.62-1.83,4.18-2.92,4.98-4.08,3.75-2.38,4.32-6.84,3.17-10.81-.34-1.16-.84-2.32-1.76-3.1-3.28-2.79-5.73,2.99-7.34,5.03-4.92,6.26-9.58,12.88-14.93,18.78-1.51,1.66-3.11,3.22-4.79,4.7-.2.22-.4.44-.6.66.8.61,1.59,1.22,2.36,1.79,5.98-4.1,12.33-8.46,18.69-12.81.07-.05.14-.11.22-.16Z"/>
      <path class="cls-1" d="M394.63,110.08c-.47-.53-1.29-.77-1.97-.76-1.35.02-2.56.99-3.52,1.84-1.03.9-2.03,1.82-3.04,2.74-3.24,4.4-6.47,8.8-9.46,13.4-1.86,2.87-3.67,5.77-5.42,8.71-1.05,1.76-3.81,4.58-1.27,6.2.42.27.84.55,1.24.84,7.67-8.52,15.16-16.79,21.54-26.38,1.43-2.15,2.05-4.02,1.89-6.59Z"/>
      <path class="cls-1" d="M362.44,147.52c1.07-2.54,1.99-4.75,3.13-7.46-2.73.68-4.05,4.24-3.13,7.46Z"/>
      <path class="cls-1" d="M339.06,130.29c.05-1.37-.59-3.02-.9-4.35-1.8-7.67-3.71-15.33-6.23-22.8-.54-1.59-1.11-3.17-1.71-4.74-.49-1.27-.85-2.79-1.81-3.77-1.5-1.53-4.95-1.9-6.92-1.38-2.3.6-2.12,1.93-1.28,3.73,1.95,4.16,4.08,8.3,5.82,12.56,1.13,2.77,2.02,5.63,3.2,8.38,1.02,2.37,2.52,4.48,3.52,6.85.66,1.57.77,3.68,1.73,5.1.43.64,1.04,1.15,1.96,1.39.94.25,2.57.41,2.62-.97Z"/>
      <path class="cls-1" d="M341.77,145.53c-.38-4.19-1.18-7.98-3.41-11.94-.86,3.46,1.17,10.27,3.41,11.94Z"/>
      <path class="cls-1" d="M353.08,94.97c-.62-3.5-3.17-5.34-6.63-5.8-1.03-.14-3.55-.39-4.22.67-.51.8.19,2.29.38,3.1.29,1.29.58,2.58.87,3.88.57,2.59,1.11,5.18,1.64,7.77,1.02,5.02,1.96,10.06,2.85,15.11.23,1.82.46,3.65.69,5.47.27,2.17-.04,5.34,2.43,6.27.46.18,1.02.33,1.35-.17.15-.22.2-.49.24-.76,1.01-5.76,1.56-11.45,1.57-17.31,0-.88,0-1.77-.02-2.64-.08-5.12-.24-10.55-1.13-15.59Z"/>
      <path class="cls-1" d="M329.74,122.91c-1.09-2.04-2.37-3.96-3.69-5.86-.35-.55-.72-1.09-1.13-1.61-.2-.29-.4-.57-.6-.86-.09-.13-.2-.21-.31-.26-.97-1.49-2.13-2.85-3.58-3.95-.78-.59-1.91-.84-2.75-.32-1.18.73-1.64,2.71-1.27,3.98.53,1.8,1.67,3.43,2.73,4.95,1.55,2.22,2.95,4.55,4.49,6.78,1.44,2.11,2.55,4.43,4.24,6.38.82.94,3.09,2.39,4.18,1.99.35-.12.57-.43.6-1,.17-.17.26-.41.22-.7-.52-3.35-1.53-6.51-3.13-9.5Z"/>
      <path class="cls-1" d="M348.39,147.07c.3-4.46-.02-8.57-1.88-12.45-1.45,2.18,0,10.87,1.88,12.45Z"/>
      <path class="cls-1" d="M347.17,127.21c-1.3-9.82-3.39-19.53-5.44-29.23-.36-1.69-.61-3.55-1.51-5.05-1.55-2.56-5.57-3.28-8.3-2.73-.88.18-1.42,1.01-1.42,1.89,0,.56.17,1.11.35,1.64,1.91,5.9,3.91,11.78,5.61,17.75,1.69,5.96,2.39,11.93,4.92,17.67.69,1.57,1.43,2.66,3.26,1.8.07-.03.14-.07.21-.1,1.41-.75,2.56-1.94,2.34-3.64Z"/>
      <path class="cls-1" d="M380.91,117.17c2.76-3.89,5.32-8.37,4.57-13.32-.53-3.55-2.85-7.66-6.99-5.68-3.15,1.51-4.5,5.54-5.9,8.42-4.2,8.59-5.91,18.07-8.99,27.06-.49,1.43-1.62,2.93-.51,4.07.73.75,2.35.92,3.29,1.31.12.05.25.07.38.05,2.02-.24,5.06-7.91,5.83-9.37,2.36-4.49,5.41-8.41,8.33-12.53Z"/>
      <path class="cls-1" d="M396.06,163.01c1.37,1.01,3.02,2.14,4.77,2.19,1.84.06,3.66-.32,5.49-.31,3.15.02,6.29.03,9.44.02,2.48,0,4.96-.1,7.44,0,.87.04,1.89.1,2.77-.11.13-.29.24-.59.33-.89.13-.75.04-1.59-.06-2.26-.16-1.18-.68-2.01-1.92-2.21-1.19-.2-2.47-.13-3.68-.18-1.26-.04-2.52-.09-3.77-.12-2.6-.07-5.21-.11-7.81-.07-5.06.07-10.12.42-15.09,1.33-.06.01,1.77,2.36,2.1,2.6Z"/>
      <path class="cls-1" d="M317.66,201.65c-1.98.04-3.97,1.87-3.82,3.67.17,2.12,1.6,3.01,3.45,3.23,2.29.02,3.95-1.5,3.96-3.51.01-1.98-1.53-3.44-3.59-3.39Z"/>
      <path class="cls-1" d="M487.11,284.86l.65-.58c-5.93-6.42-11.86-12.83-17.79-19.25,4.57,7.69,9.93,14.6,17.14,19.83Z"/>
      <path class="cls-1" d="M300.48,209.33s-.03-.01-.04-.02l-8.39,9.39-.63.65c-.09.14-.18.29-.27.42,7.24-2.36,14.36-4.69,21.43-6.99-.05-.03-.24-.26-.46-.29-4-.59-8.2-.37-11.64-3.15Z"/>
      <rect class="cls-1" x="390.07" y="249.99" width="5.32" height=".8"/>
      <path class="cls-1" d="M400.25,252.11c-1-.32-2.09-.46-3.14-.47-6.71-.04-13.42-.02-20.13-.02l-.17.44c3.02,1.4,5.98,3.76,9.07,3.97,4.79.31,9.67-.82,14.51-1.44.44-.06,1.19-.89,1.11-1.15-.17-.54-.72-1.17-1.25-1.34Z"/>
      <path class="cls-2" d="M412.67,252.54c-4.77-1.47-9.58-2.78-14.31-4.35-2.26-.75-4.38-1.94-6.55-2.95-2.25-1.05-4.42-2.29-6.74-3.15-5.89-2.18-11.84-4.19-18.14-6.4,5.16-3.92,4.82-8.87,3.48-13.8-.79-2.88-2.34-5.56-3.64-8.28-3.68-7.73-3.23-11.17,5.09-16.63,1.11-.73,2.4-1.16,3.61-1.73,8.12-3.84,16.95-5.21,25.51-7.52,10.45-2.82,20.81-5.95,31.16-9.1,3.43-1.05,4.52-3.92,3.25-7.24-1.06-2.77-3.53-2.94-5.79-2.8-4.38.27-8.76.62-13.14.98-2.41.2-4.8.6-7.22.76-1.93.13-3.91-.05-5.76-.63.29-1.87,3.9-1.4,5.17-1.45,2.38-.09,4.76-.18,7.14-.26,4.64-.15,9.28-.28,13.91-.36,2.03-.04,3.16-.66,3.57-2.71.47-2.38.69-4.33-1.34-5.86-2.71-2.05-5.67-1.79-8.77-2.32,1.03.17,1.95-3.53,2.09-4.21.5-2.52-.25-4.82-1.46-7.03-1.39-2.54-3.09-3.71-5.93-4.02-.85-.09-1.7-.18-2.55-.26.34-.68,1.2-1.47,2.19-2.44,1.6-1.56,2.78-3.25,3.35-5.43.3-1.15.28-2.32,0-3.43-1.12-1.42-2.08-3.05-3.58-4.06-1.66-1.11-3.76-1.65-5.75-1.53-.69.04-5.25,1.91-4.7.22,1.6-4.94.35-12.72-5.63-13.89.18-1.21-.3-3.37-1.22-4.34-2.14-2.27-5.13-5.29-8.48-3.49-.44.24-2.26,2.64-2.41.64-.41-5.47-2.56-11.18-7.49-14.07-.01,0-.02-.02-.03-.02-1.44-.42-2.94-.2-4.34,1.13-1.27,1.21-1.98,2.87-2.72,4.46-1.06,2.28-2.23,4.5-3.52,6.66.05-8.47.03-18.41-8.73-22.79-4.34-2.2-6.25-.96-6.33,3.74-.06,3.22.48,6.61-.36,9.77-1.43-2.92-3.14-5.86-4.25-8.92-1.31-2.98-2.85-5.88-4.88-8.43-1.99-2.49-4.38-3.92-7.61-3.86-3.66.06-4.92,1.51-4.19,5.03.12.59.24,1.18.37,1.77-1.25-2.24-2.39-4.56-4.56-6.11-1.71-1.22-3.78-1.43-5.83-1.19-2.38.28-2.57,2.53-2.69,4.49-.08,1.31-.09,2.62-.04,3.93-.38-.51-.75-1.03-1.13-1.54-2.76-3.72-6.63-5.67-11.51-4.4-1.33.35-2.34.77-1.5,2.57,5.31,11.4,10.57,22.82,15.81,34.25.58,1.26,1.15,2.52,1.73,3.78-3.29-4.17-7.27-7.91-10.89-11.79-3.97-4.25-8.23-9.58-14.48-10.12-.54-.05-1.11-.04-1.56.25-.58.38-.79,1.17-.68,1.85.5,3.16,3.05,6.92,4.82,9.52,3.37,4.94,7.02,9.68,10.61,14.46,5.73,7.64,11.5,15.24,17.24,22.86.38.5.65,1.08,1.06,1.77-1.16-.13-2.02-.22-3.65-.4.71,2.06,1.03,3.8,1.88,5.22,1.19,1.98,2.61,3.87,4.22,5.52,7.07,7.23,13.56,14.91,19.12,23.37.47.72,1.97,1.29,2.86,1.14,12.11-2.11,23.95-1.03,35.58,2.76,1.07.35,2.04,1.03,3.3,1.68-.67.52-.87.81-1.06.8-.61-.02-1.22-.12-1.82-.24-10.01-1.91-20.05-3.38-30.29-2.13-3.36.41-6.72.75-10.09,1.1-9.66,1-19.35,1.88-28.55,5.3-7.34,2.73-13.72,6.88-18.19,13.47-2.66,3.92-5.38,7.8-8.3,11.53-1.47,1.87-2.98,3.71-4.56,5.49-.86.97-2.68,2.4-3.01,3.72-.5,1.99.04,3.26,2.35,2.88,3.57-.58,7.13-1.2,10.67-1.94,2.16-.45,4.26-1.68,6.39-1.68,5.13,0,10.26.77,15.39.79,6.33.04,12.15,1.61,17.64,4.65,13.09,7.25,25.96,14.95,40.48,19.23,1.38.41,2.54,1.6,4.28,2.75-1.62.43-2.47.69-3.33.88-5.67,1.25-11.13-.06-16.64-1.24-7.2-1.54-15.64,2.15-19.45,8.38-.76,1.25-1.11,2.76-1.64,4.15.2.09.41.19.61.28,1.67-1.56,3.34-3.12,5.56-5.19-1.14,3.55-3.68,5.72-3.09,9.55,4.11-4.35,7.84-8.3,11.56-12.24.25.21.49.41.74.62-.5.89-1.02,1.76-1.49,2.67-.99,1.89-2.05,3.75-2.87,5.71-.25.6.21,1.5.36,2.34,3.02-3.29,5.58-6.1,8.16-8.89,2.6-2.82,6.17-2.56,8.19.14-3.95,2.83-8.22,5.31-11.73,8.62-1.96,1.86-2.72,5.04-3.84,7.7-.23.54.35,1.42.55,2.14,2.07-5.43,7.31-7.09,10.95-10.39-2.3,2.58-4.61,5.17-7.39,8.28,4.09.54,5.08-2.35,6.79-3.95,1.88-1.76,3.51-3.8,5.24-5.72.22.15.44.3.66.45-2.28,3.65-4.56,7.3-7.01,11.24.87-.2,1.72-.14,2.14-.54,2.64-2.48,5.54-4.81,7.64-7.71,1.58-2.18,2.58-2.62,5.06-1.48,4.49,2.07,9.19,3.73,13.87,5.37.73.26,1.81-.49,2.72-.77-.56-.74-.95-1.77-1.69-2.16-2.74-1.46-5.63-2.65-8.39-4.08-.9-.46-1.57-1.36-2.35-2.05,3.84-.26,7.31-.03,10.77.19,5.04.33,10.07.87,15.11.85,1.4,0,3.37-1.37,4.06-2.65.88-1.65-1.3-4.9-3.16-5.47ZM332.65,133.12c-.03.57-.26.87-.6,1-1.1.4-3.37-1.05-4.18-1.99-1.69-1.94-2.79-4.27-4.24-6.38-1.53-2.23-2.93-4.56-4.49-6.78-1.06-1.52-2.2-3.15-2.73-4.95-.37-1.26.08-3.25,1.27-3.98.83-.51,1.96-.27,2.75.32,1.46,1.1,2.61,2.46,3.58,3.95.12.05.22.13.31.26.2.29.4.57.6.86.4.52.78,1.06,1.13,1.61,1.32,1.9,2.6,3.82,3.69,5.86,1.6,3,2.61,6.15,3.13,9.5.05.29-.05.54-.22.7ZM336.44,131.26c-.92-.24-1.52-.75-1.96-1.39-.96-1.42-1.07-3.53-1.73-5.1-1-2.37-2.51-4.48-3.52-6.85-1.18-2.75-2.07-5.61-3.2-8.38-1.74-4.26-3.86-8.4-5.82-12.56-.84-1.79-1.02-3.13,1.28-3.73,1.97-.52,5.42-.15,6.92,1.38.96.98,1.32,2.51,1.81,3.77.6,1.57,1.17,3.15,1.71,4.74,2.52,7.47,4.43,15.13,6.23,22.8.31,1.33.95,2.98.9,4.35-.05,1.38-1.68,1.22-2.62.97ZM338.36,133.59c2.24,3.96,3.03,7.75,3.41,11.94-2.24-1.67-4.28-8.48-3.41-11.94ZM344.63,130.95c-1.84.86-2.57-.23-3.26-1.8-2.53-5.74-3.23-11.71-4.92-17.67-1.69-5.97-3.69-11.85-5.61-17.75-.17-.54-.35-1.08-.35-1.64,0-.88.54-1.71,1.42-1.89,2.73-.55,6.75.17,8.3,2.73.91,1.5,1.16,3.36,1.51,5.05,2.05,9.7,4.14,19.41,5.44,29.23.22,1.7-.92,2.89-2.34,3.64-.07.04-.14.07-.21.1ZM348.39,147.07c-1.88-1.58-3.33-10.27-1.88-12.45,1.87,3.88,2.18,7.99,1.88,12.45ZM352.67,130.51c-.05.26-.1.53-.24.76-.33.5-.89.35-1.35.17-2.47-.93-2.16-4.11-2.43-6.27-.23-1.82-.45-3.65-.69-5.47-.89-5.05-1.83-10.08-2.85-15.11-.53-2.59-1.07-5.18-1.64-7.77-.28-1.29-.57-2.59-.87-3.88-.19-.82-.88-2.31-.38-3.1.67-1.06,3.19-.8,4.22-.67,3.46.46,6.01,2.3,6.63,5.8.9,5.04,1.05,10.48,1.13,15.59.01.88.02,1.76.02,2.64,0,5.86-.56,11.55-1.57,17.31ZM354.41,147.21v-10.65c2.77,1.69,2.79,7.44,0,10.65ZM360.83,134.97c-.11.29-.13.69-.39.86-.02.01-.04.03-.06.04-.9.44-2.48-.39-3.3-.72-1.28-.51-1.87-1.12-1.74-2.6.57-6.5.97-13,1.48-19.5.33-4.15.19-8.33.71-12.46.35-2.84,1.26-9.91,4.93-10.42,2.2-.3,4.53,1.77,5.52,3.51,2.8,4.92.84,11.61-.49,16.69-1.88,7.17-3.77,14.35-5.76,21.49-.29,1.03-.51,2.12-.89,3.12ZM362.44,147.52c-.91-3.23.41-6.78,3.13-7.46-1.14,2.71-2.07,4.92-3.13,7.46ZM366.75,139.08c-.13.02-.26,0-.38-.05-.94-.39-2.56-.56-3.29-1.31-1.11-1.14.02-2.64.51-4.07,3.07-8.99,4.79-18.47,8.99-27.06,1.41-2.87,2.75-6.91,5.9-8.42,4.14-1.98,6.46,2.13,6.99,5.68.75,4.95-1.81,9.43-4.57,13.32-2.92,4.12-5.97,8.04-8.33,12.53-.77,1.46-3.81,9.13-5.83,9.37ZM369.96,142.21c-2.54-1.62.22-4.44,1.27-6.2,1.75-2.94,3.55-5.84,5.42-8.71,2.99-4.6,6.22-8.99,9.46-13.4,1.01-.92,2.01-1.84,3.04-2.74.97-.85,2.17-1.82,3.52-1.84.68,0,1.5.23,1.97.76.15,2.57-.46,4.44-1.89,6.59-6.38,9.59-13.86,17.86-21.54,26.38-.41-.29-.82-.57-1.24-.84ZM373.27,144.57c.2-.22.4-.44.6-.66,1.69-1.47,3.29-3.03,4.79-4.7,5.35-5.9,10-12.53,14.93-18.78,1.6-2.03,4.06-7.81,7.34-5.03.92.78,1.43,1.94,1.76,3.1,1.15,3.97.58,8.44-3.17,10.81-.8,1.15-2.36,2.25-4.98,4.08-.07.05-.14.11-.22.16-6.36,4.36-12.71,8.71-18.69,12.81-.77-.57-1.56-1.18-2.36-1.79ZM382.01,151.46c-1.79-.92-3.64-1.86-5.9-3.02.8.41,7.43-4.44,8.44-5.05,2.98-1.78,5.96-3.57,8.94-5.35,5.01-3,10.01-7.69,15.78-8.98,2.31-.52,5-.54,7.05.8.99.65,1.81,1.68,1.86,2.86.05,1.17-.66,2.23-1.46,3.08-4.07,4.29-10.6,5.8-15.93,7.85-3.37,1.3-6.73,2.62-10.08,3.96-1.67.67-3.37,1.31-5.02,2.04-.37.17-3.42,1.95-3.68,1.82ZM390.88,157.55c-.49-.1-.77-.28-.79-.54-.62-.09-5.91-3.42-5.48-3.68,3.5-2.13,8.51-3.04,12.43-4.3,5.1-1.64,10.63-4.12,16.05-4.12,5.37,0,11.1,5.22,3.91,8.2-2.29.95-21.94,5.33-26.13,4.44ZM393.97,160.41c4.98-.91,10.04-1.26,15.09-1.33,2.6-.03,5.21,0,7.81.07,1.26.03,2.52.08,3.77.12,1.21.04,2.48-.02,3.68.18,1.24.2,1.75,1.03,1.92,2.21.09.67.18,1.52.06,2.26-.09.3-.2.6-.33.89-.88.21-1.89.15-2.77.11-2.48-.11-4.96-.02-7.44,0-3.15.01-6.29,0-9.44-.02-1.83-.01-3.65.37-5.49.31-1.75-.06-3.4-1.18-4.77-2.19-.32-.24-2.16-2.59-2.1-2.6ZM291.15,219.77c.09-.14.18-.28.27-.42l.63-.65,8.39-9.39s.03,0,.04.02c3.44,2.78,7.64,2.56,11.64,3.15.22.03.41.26.46.29-7.07,2.31-14.19,4.63-21.43,6.99ZM317.28,208.55c-1.85-.23-3.28-1.11-3.45-3.23-.14-1.8,1.84-3.62,3.82-3.67,2.06-.04,3.6,1.41,3.59,3.39-.01,2.01-1.68,3.53-3.96,3.51ZM395.39,249.99v.8s-5.32,0-5.32,0v-.8s5.32,0,5.32,0ZM400.39,254.6c-4.83.61-9.72,1.75-14.51,1.44-3.1-.2-6.05-2.57-9.07-3.97l.17-.44c6.71,0,13.42-.02,20.13.02,1.05,0,2.15.15,3.14.47.53.17,1.08.8,1.25,1.34.08.26-.67,1.09-1.11,1.15Z"/>
      <path class="cls-2" d="M512.39,340.13c-.94-1.01-2.35-1.59-3.56-2.34-.21.73-.84,1.8-.56,2.12,1.04,1.24,2.37,2.23,3.6,3.31l.87-.31c-.09-.95.18-2.24-.33-2.79Z"/>
      <path class="cls-2" d="M544.13,184.78c-5,.85-10.02,1.64-14.92,2.91-9.46,2.45-18.84,5.21-28.24,7.86-.42.12-.81.34-1.22.52.01.19.02.39.03.58,5.27,0,10.56.28,15.82-.06,10.42-.68,20.09-4.26,29.51-8.5.83-.37,1.25-1.66,1.86-2.52-.95-.28-1.96-.93-2.84-.78Z"/>
      <path class="cls-2" d="M553.51,369.17c-.46-2.32-1.33-4.64-2.41-6.76-8.3-16.19-18.23-31.26-30.81-44.51-4.3-4.53-8.22-9.41-12.27-14.16-.6-.7-.95-1.61-1.41-2.42,2.31,1.66,4.17,3.59,6.11,5.43,4.73,4.47,9.45,8.95,14.32,13.28.74.66,2.2.5,3.32.72-.1-1.17.19-2.57-.36-3.45-1.77-2.88-3.59-5.81-5.87-8.28-7.1-7.66-14.2-15.34-21.69-22.61-15.51-15.04-31.29-29.79-46.91-44.72-3.13-2.99-6.02-6.24-9.02-9.37.15-.26.3-.52.44-.78,1.29,0,2.58.02,3.87,0,4.59-.1,9.2.02,13.75-.4,4.55-.43,9.05-1.36,13.56-2.17,2.08-.38,4.29-.82,3.75-3.62,3.47-.37,6.74-.65,9.98-1.11,1.5-.21,3.43-1.12,2.81-2.97-.79-2.39.39-2.86,2.69-2.79,2.17.07,9.19.82,10.73-.98.98-1.14-1.47-2.25-3.97-3.02-3.77-.44-7.6-.19-11.38-.35-4.82-.2-9.69-.59-14.51-.19-.32.23-.58.53-.73.89-.05.13-.03.26.03.39.6,1.19,6.74,2.12,8.08,2.52.8.24,8.1,2.3,4.08,3.6-3.98,1.29-9.88-.96-13.77-1.83-11.68-2.62-23.35-5.71-34.82-9.14-2.33-.7-4.96-2.41-7.22-2.89,3.51.75,7,1.82,10.55,2.17,12.71,1.24,25.47,2.15,38.25,2.61.9,0,1.8,0,2.7.03,1.4.04,2.8.1,4.2.17,5.87.13,11.75.17,17.62.09,3.9-.05,8.11-.15,11.75-1.74,1.4-.61,4.6-2.19,3.31-3.62-1.46-1.63-6.65-.81-8.53-.66-25.39,2.07-51.15,4.41-76.16-.4-1.51-.29-3.11-.66-4.17-1.77,19.33,0,38.66,0,57.99,0,3.72,0,7.44,0,11.15.33,5.59.5,10.56.69,16.09-.43,3.35-.68,6.78-.9,10.11-1.7,2.18-.53,9.47-2.54,8.86-5.93-.55-3.07-9.77-.03-11.5.28-4.34.8-8.67,1.64-13.01,2.44-6.72,1.23-13.32,2.81-20.35,2.27-7.06-.54-14.22.12-21.33.2-11.59.13-23.17.24-34.76.31-.85,0-1.71-.37-2.56-.57.03-.29.06-.57.08-.86,1.09-.09,2.18-.24,3.27-.26,1.96-.04,3.93.09,5.89,0,14.91-.68,29.57-3.13,44.24-5.63,18.88-3.21,37.46-5.97,55.16-13.85,2.18-.97,4.39-2.06,6-3.83,1.61-1.76,2.52-4.37,1.68-6.6-.28-.75-.77-1.44-1.47-1.82-1.6-.86-3.52.18-5.05,1.16-12.43,7.92-26.36,13.29-40.57,17.18-11.57,3.17-23.37,5.39-35.18,7.43-11.41,1.97-22.59,4.75-34.32,3.58.63.06,1.69-.7,2.34-.9,1.42-.43,2.95-.64,4.41-.96,2.79-.61,5.58-1.21,8.37-1.82,5.58-1.21,11.15-2.43,16.73-3.64,11.59-2.52,23.17-5.11,34.79-7.46,9.04-1.83,17.7-5.19,25.9-9.36,4.11-2.09,8.12-4.38,12.04-6.8,3.24-1.99,8.04-4.07,10.24-7.28.02-.02.03-.05.05-.07-.04-.11-.08-.22-.13-.33-.91-1.97-2.75-1.38-4.25-1.06-2.26.48-4.47,1.23-6.7,1.84-.92.25-1.88.57-2.81.54.46.01,2.63-7.63-.47-7.8-.95-.05-1.71.62-2.51,1.03-.44.22-.7.22-1.19.55-.76.52-1.52,1.03-2.28,1.54-1.44.96-2.9,1.89-4.37,2.81-5.82,3.63-11.83,6.95-17.88,10.18-3.1,1.65-6.21,3.27-9.32,4.9-2.24,1.17-8.02,2.72-8.88,5.09,5,0,11.15-2.81,15.85-4.48.64-.23,2.51-1.08,4.82-2.11.06-.1.15-.19.28-.26,3.3-1.61,6.31-4.28,9.9-5.25,2.63-.71,10.46.16,6.38,4.42-.95,1-2.32,1.47-3.63,1.9-6.65,2.21-13.28,4.67-20.08,6.37-.15.04-.29.03-.41,0-3.55.89-7.17,1.51-10.72,2.28-14.74,3.19-29.21,7.59-44.09,10.12-3.75.65-7.51,1.11-11.28,1.59-3.06.38-6.75,1.45-9.73.15,3.51-3.72,9.9-5.29,14.38-7.6,5.03-2.59,10.05-5.19,15.08-7.78-.99,1.17-2.07,2.26-3.22,3.27-.9.66-1.79,1.31-2.69,1.97.02,0,.04,0,.06,0-1.78,1.08-3.62,2.06-5.51,2.93-1.55.57-3.1,1.13-4.66,1.68-.22.08-.37.21-.46.36-.59.2-.68.82-.43,1.22-.04.03-.08.06-.11.09.06,0,.13.01.2.02.17.19.44.3.77.22.2-.05.39-.11.58-.16.77,0,1.6-.06,2.47-.16,1.67-.12,3.3-.45,4.9-.93,9.43-1.79,18.71-4.34,27.72-7.64,2.61-.96,5.2-1.98,7.77-3.06.19-.08.36-.21.46-.37,9.52-3.92,17.62-10.25,24.83-17.68,2.05-2.11,3.33-5.01,4.68-7.69.41-.82.27-2.51-.32-3.06-.57-.53-2.26-.51-3.06-.05-3.08,1.78-6.01,3.82-8.98,5.79-10.53,7.01-21.03,14.08-31.61,21.01-2.6,1.7-5.39,3.12-8.16,4.55.22-.25.44-.5.66-.75,3.3-2.64,6.1-5.88,8.25-9.5,2.19-2.51,3.83-5.42,5.05-8.68.54-1.46.77-3.12.75-4.69-.04-2.21-1.14-2.7-2.89-1.32-2.17,1.71-4.33,3.47-6.28,5.43-9.56,9.61-21.05,16.19-33.51,21.12-16.12,6.38-32.47,12.12-49.52,15.59-3.38.69-6.71,1.66-10,2.7-.77.24-1.45,1.2-1.85,1.99-.15.29.48,1.28.97,1.55,9.01,4.99,18.26,8.97,28.96,6.69.87-.19,1.8-.13,2.7-.18-.33.82-.7,1.3-1.15,1.39-3.53.71-7.1,1.29-10.62,2.06-.77.17-1.42.91-2.13,1.39.75.55,1.54,1.61,2.25,1.56,4.75-.36,9.61-.47,14.2-1.63,3.6-.91,6.07-.42,8.88,1.93,5.52,4.62,11.38,8.84,17.07,13.26.35.27.63.89.61,1.33-.18,3.09-.1,6.25-.77,9.24-1.07,4.84-5.7,7.13-10.42,5.52-1.35-.46-2.62-1.13-3.97-1.58-.93-.3-1.93-.38-3.37-.64.4,1.02.45,1.67.79,1.9,1.87,1.32,3.4,2.78,3.86,5.21.08.43,1.75,1.05,2.39.81,4.15-1.55,7.49.15,10.75,2.36,1.51,1.02,2.99,2.09,4.79,3.35-.3-2.08-.54-3.7-.78-5.32,1.25.54,2.08,1.3,2.74,2.18,1.4,1.85,2.64,3.82,4.08,5.63,9.77,12.31,19.65,24.52,29.33,36.89,7.9,10.1,16.42,19.56,26.81,27.18,1.78,1.31,3.7,2.41,5.77,2.98-2.84-5.53-45.46-57.69-44.42-58.64l1.42-1.29c1.55,1.94,3.11,3.87,4.65,5.81,10.37,13.07,20.55,26.3,31.16,39.16,15.28,18.52,30.87,36.79,46.37,55.14,1.43,1.7,2.94,3.46,4.75,4.67,1.15.77,3.22,1.16,4.35.61.81-.39,1.22-2.7.96-3.98ZM450.39,216.2c8.12,2.14,16.24,4.29,24.37,6.43l-.19.71c-3.72.4-19.24-3.63-24.42-6.34.08-.27.16-.54.24-.8ZM438.34,228.44c-.48.17-1.18.04-1.56-.11-1.42-.55-2.6-1.56-3.78-2.49-2.19-1.74-4.49-3.35-6.88-4.8-.73-.45-2.1-.62-2.25-1.56-.37-2.31,3.68.3,4.33.75,1.33.91,11.23,6.59,10.55,7.87-.09.17-.24.27-.42.34Z"/>
    </g>
  </g>
  <g>
    <path class="cls-6" d="M311.09,160.43c-.57-.36-1.14-.7-1.71-1.04-2.62-1.55-5.38-2.73-8.22-3.71-9.5-1.75-18.99-3.53-28.55-4.88-2.55-.36-4.64.69-5.95,2.3-15.92-.53-31.36,1.62-43.85,12.3-.02,0-.03,0-.05,0-.97.07-1.94.14-2.92.22-1.44-2.84-5.2-4.58-8.42-2.75-.67.47-1.4.81-2.17,1.03-.33.07-.66.14-.98.21-1.91.48-3.12,1.58-3.74,2.91,4.97,2.29,5.24,7.09,2.81,11.32-.27-.42-.56-.83-.86-1.22-3.97-5.13-9.49-9.39-14.55-13.39-4.96-3.91-11.34-7.16-14.96-12.46-1.22-1.79-2.99-2.2-4.48-1.71.13-.96.07-1.93-.32-2.91-1.3-3.25-4.64-5.95-6.91-8.51-3.04-3.44-6.09-6.88-9.13-10.32-6.09-6.88-12.18-13.76-18.27-20.65-3.04-3.43-8.43.97-6.23,4.81,4.24,7.39,8.54,14.76,13.95,21.37.61.75,1.25,1.47,1.9,2.19-2.73-2.08-5.41-4.23-8.09-6.29-8.88-6.84-19.55-13.33-26.25-22.49-2-2.74-7.98-2.37-7.4,2,.8,6.06,2.05,12.01,5.67,17-5.83-2.6-11.58-5.28-16.29-9.44-3.33-2.94-8.47.74-6.23,4.81,3.39,6.17,7.59,11.8,12.45,16.76-6.52-2.17-12.88-4.71-18.73-8.48-3.39-2.18-7.4,2.1-5.43,5.43,2.35,3.98,3.41,8.13,5.26,12.25-.27,1.33.07,1.92,1,1.77.93,0,.76.05-.48.16-1.46.57-2.31.59-3.37,1.9-.83,1.03-1.57,2.49-1.02,3.86.68,1.69,1.6,3.03,2.64,4.44.35.55.76,1.11,1.27,1.68.46.52.99.83,1.56,1,.38.8.72,1.46.88,1.68,1,1.31,2.19,2.36,3.53,3.23-.09,4.71.84,9.62,3.25,13.66,2.7,4.53,7.36,4.75,12.13,4.97,13.36.62,26.73.28,40.06-.9.66,1.67,2.25,2.83,4.46,2.07.93-.32,1.8-.69,2.64-1.09,1.68.19,3.35.41,5.02.63.23.19.46.39.71.56,3.68,2.51,8.57,2.35,12.85,2.87,2.29.28,4.58.56,6.88.84-.05,1.01-.13,2.01-.27,3.02-1.32,9.16-5.91,17.4-11.09,24.91-1.09,1.59-1.26,3.15-.83,4.51-.74,1.43-1.42,2.9-1.99,4.45-3.36,9.06-3.12,19.14-2.48,28.63.26,3.89.64,7.63,4.07,10.06.9.64,1.95,1.11,3.08,1.47-3.86,4.48-8.13,8.57-12.76,12.32-1.38,1.11-1.9,2.61-1.81,4.12,2.64-1.73,5.93-2.47,9.23-2.59,2.94-2.11,6.41-2.76,10.02-3.28.12-.02.24-.02.35-.03-.71-1.56-.01-3.71,2.22-3.62,3.03.13,6.06.2,9.09.3.75-.72,1.55-1.35,2.49-1.78,2.89-1.31,6.37-1.26,9.36-2.54,6.68-2.86,12.13-8.24,17.19-13.33,2.99-3.01,5.82-6.16,8.57-9.39,2.75-3.23,4.92-6.02,9.55-5.85,2.01.07,4.2-1.17,5.14-2.95.83-1.57,1.33-2.92,1.2-4.73,0-.09-.03-.17-.03-.25,3.43-3.83,6.4-8.03,8.85-12.58,2.38-4.42-1.58-10.3-6.72-8.75-.63.19-1.25.4-1.86.63-1.37-2.01-3.91-3.05-6.57-2.32.61-2.12,1.23-4.25,1.84-6.37,1.11-3.85-2.74-8.74-6.9-7.46.53-.89,1.05-1.77,1.58-2.66.99-.97,1.96-1.95,2.97-2.9,7.09-6.71,14.56-13.17,22.5-18.85,4.23-3.03,8.63-5.7,13.77-6.82,2.61-.56,5.27-.77,7.94-.82,7.65.65,15.31,1.8,22.57,2.63.39-.29.91-.46,1.54-.43,4.24.17,8.4-1.05,12.51-2.21.6-1.43.73-3.09.32-4.56ZM90.8,148.67s0-.01,0-.02c0,0,0,0,.01.01,0,0,0,0-.01,0Z"/>
    <g>
      <path class="cls-3" d="M283.48,162.07c2.04-.85,4.27-1.34,6.14-2.46,1.31-.78,2.51-2.2,3.09-3.6.69-1.68,1.54-1.74,2.85-1.17,4.43,1.96,10.75,3.83,13.72,7.91-3.81.06-7.59-.57-11.46-.29-4.02.29-8,.91-11.99,1.43-1.46.19-2.94.25-4.41.37-.1-.25-.2-.5-.31-.75.79-.49,1.53-1.09,2.38-1.44Z"/>
      <path class="cls-2" d="M208.5,166.59c-7.34-4.69-14.25-10.1-20.15-16.53-5.22-5.68-9-14.65-16.38-17.88-1.89,2.03-.1,4.41,1.26,6.43,1.3,1.92,2.66,3.8,3.94,5.73,1.26,1.89,2.44,3.83,3.66,5.75-.38.31-.76.62-1.13.93-1.35-1.67-2.66-3.37-4.06-4.99-3.69-4.24-7.34-8.51-11.15-12.65-4.95-5.37-10.2-10.47-15.03-15.94-9.93-11.22-18.38-23.43-23.89-37.5-.64-1.64-1.4-3.42-2.62-4.6-1.07-1.04-2.98-1.98-4.31-1.75-1.09.19-2.07,2.06-2.71,3.37-.42.87-.34,2.11-.16,3.13.76,4.38,1.39,8.81,2.53,13.1,2.2,8.29,6.75,15.5,11.1,22.78.5.84.91,1.75,1.36,2.62-.18.14-.37.28-.55.42-.93-.62-1.92-1.18-2.8-1.88-10.69-8.41-18.83-18.94-25.52-30.68-2.69-4.73-5.27-9.52-7.87-14.3-1.18-2.17-2.91-3.09-5.33-2.33-2.4.75-3.33,2.61-3.23,4.95.09,2.13.18,4.3.68,6.36,3.14,12.99,9.35,24.42,17.75,34.73.96,1.18,1.64,2.58,2.45,3.87-.95.25-1.52.2-1.89-.09-5.02-3.96-10.39-7.58-14.93-12.05-6.09-5.99-11.52-12.67-17.28-19-1.01-1.1-2.15-2.2-3.44-2.9-2.42-1.31-4.85,0-4.86,2.71-.01,2.53.03,5.25.9,7.58,4.12,11.04,10.85,20.42,19.1,28.76,1.19,1.21,2.37,2.43,3.55,3.65-.15.21-.3.41-.45.62-1.4-.5-2.9-.81-4.17-1.54-4.94-2.84-9.82-5.77-14.69-8.74-3.19-1.95-6.25-4.13-9.49-5.97-1.03-.59-3.04-1.02-3.62-.48-.92.87-1.67,2.81-1.33,3.94,1.03,3.36,2.24,6.79,4.08,9.75,4.46,7.15,10.96,12.39,17.59,17.44,1.15.88,2.13,1.99,3.19,2.99-.12.19-.24.37-.36.56-1.41-.45-2.82-.9-4.22-1.35-4.91-1.59-9.79-3.31-14.76-4.71-2.82-.79-4.42.96-3.54,3.76.61,1.92,1.5,3.85,2.68,5.48,5.47,7.6,12.69,12.95,21.52,16.12.97.35,1.84.95,2.76,1.43-.09.25-.18.5-.27.76-1.11-.05-2.22-.03-3.32-.18-4.06-.53-8.12-1.12-12.17-1.68-2.28-.32-2.95.98-2.51,2.87.29,1.27.9,2.55,1.67,3.61,3.89,5.4,8.77,9.71,15.1,11.94,10.53,3.7,21.5,4.99,32.6,5.39,3.17.11,6.34.28,9.5.43,0,.33.02.66.03.99-5.62.46-11.29,1.59-16.85,1.21-8.04-.55-16-2.24-24.01-3.36-1.57-.22-3.19-.11-4.79-.15.73,1.63,1.11,3.55,2.23,4.84,7.31,8.4,16.63,10.63,27.34,8.7,10.91-1.97,21.03-6.07,30.98-10.79,4.52-2.14,9.32-3.71,13.99-5.54.18.49.36.99.54,1.48-17.94,8.8-35.2,19.44-56.46,19.43.12.73.09,1.2.28,1.55,2.95,5.58,10.36,8.9,16.48,7.21,2.39-.66,4.73-1.64,6.92-2.81,7.79-4.17,15.48-8.52,23.24-12.74,3.21-1.75,6.48-3.38,9.77-4.97.75-.36,1.69-.32,3.2-.57-.69.99-.85,1.43-1.16,1.64-12.91,8.85-26.51,16.48-40.88,22.69-2.15.93-2.1,1.76-1.01,3.28,2.34,3.24,5.33,5.57,9.36,6.12,1.17.16,2.75-.09,3.63-.79,6-4.78,11.84-9.77,17.79-14.61,3.49-2.84,7.1-5.54,10.65-8.3.22.27.43.53.65.8-7.88,9.73-18.05,16.8-29,23.65,4.1,4.18,9.15,5.72,14.03,7.47,2.28-2.84,4.41-5.46,6.5-8.09,4.73-5.93,9.42-11.89,14.18-17.8.64-.79,1.55-1.36,2.34-2.03.27.27.54.55.8.82-6.61,9.77-13.29,19.49-22.78,27.22,1.65.83,2.89,1.52,4.19,2.1,2.56,1.14,5.11,2.88,7.82.21.07-.07.22-.1.39-.11,2.93-2.13,5.52-5.37,8.1-7.84,1.12-1.07,2.26-2.19,3.46-3.23,6.78-13.26,16.75-23.8,28.72-32.65,2.86-2.12,5.64-4.36,8.26-6.77,1.05-.97,1.34-2.73,2.34-3.77,4.27-4.44,9.08-8.17,15.54-10.38-4.13-2.99-7.73-5.88-11.6-8.35ZM133.25,106.27c.97.84,2,1.49,2.71,2.38,6.36,8.01,12.66,16.08,19.01,24.1,1.55,1.95,3.32,3.73,4.84,5.7.81,1.04,1.3,2.33,2.21,4.03-13.1-5.01-32.34-26.94-28.77-36.21ZM108.34,105.27c.36-.28,1.66.26,2.25.76,3.33,2.82,6.62,5.71,9.85,8.64,9.38,8.5,18.64,17.16,28.15,25.51,4.94,4.34,10.32,8.17,15.5,12.23-.12.28-.24.55-.37.83-7.45-3.47-15.16-6.5-22.31-10.52-11.07-6.24-21.42-13.59-28.97-24.14-1.71-2.39-3.25-4.9-4.71-7.45-.55-.97-.97-2.2-.9-3.28.07-.92.76-2.01,1.5-2.58ZM89.65,116.45c.86-.38,2.3-.2,3.16.3,4.62,2.68,9.17,5.47,13.68,8.34,8.79,5.59,17.48,11.35,26.32,16.87,7.86,4.91,15.86,9.58,23.78,14.37.49.3.9.73,1.35,1.11-.08.19-.17.38-.25.56-3.72-1.1-7.43-2.25-11.17-3.3-15.71-4.4-30.64-10.65-44.29-19.62-3.97-2.61-7.5-6.04-10.77-9.52-1.51-1.61-2.07-4.21-2.73-6.46-.23-.78.3-2.38.91-2.65ZM148.51,181.8c-5.34,1.3-10.7,3.11-16.12,3.37-9.92.47-19.9.25-29.83-.22-4.99-.24-9.12-2.94-11.58-7.54-.59-1.1-.71-2.44-1.22-4.33,6.43.89,12.07,1.58,17.67,2.46,13.01,2.05,26.08,3.22,39.26,2.85.44-.01.93-.15,1.31,0,.93.34,1.8.81,2.7,1.23-.73.76-1.34,1.98-2.2,2.19ZM151.25,173.31c-3.99.25-8.02.71-12.06.7-15.54-.04-30.89-1.57-45.72-6.61-4.22-1.43-7.92-3.66-10.77-7.15-2.16-2.65-3.22-5.66-2.78-9.92,6.77,2.24,13.15,4.17,19.39,6.45,15.85,5.78,32.21,9.48,48.83,12.14,3.15.5,3.22.53,3.11,4.4ZM130.29,161.84c-11.88-2.75-23.65-6.11-34.63-11.6-3.97-1.99-7.81-4.33-11.38-6.97-2.08-1.53-3.75-3.81-5.13-6.04-1.37-2.21-1.23-4.76.33-7.62,5.99,2.8,12.05,5.35,17.86,8.4,18.11,9.5,36.96,17.18,56.44,23.36,1.25.4,2.55.64,4.46,1.11-9.88,2.46-19.03,1.43-27.95-.64ZM180.47,166.42c-7.04-1.46-14.28-1.97-21.03-4.79,6.94-.49,13.76-.12,20.31,2.29.59.22.89,1.21,1.33,1.84-.2.22-.4.45-.6.67ZM184.36,194.96c.56-3.32,12.42-9.29,17.61-8.8-5.48,4.52-11.32,6.81-17.61,8.8Z"/>
      <path class="cls-2" d="M226.3,175.66c.6.51.95,2.16.59,2.85-4.55,8.68-6.15,17.74-3.86,27.35,1.58,6.63,4.4,12.61,10.85,15.67,2.65,1.26,5.94,1.15,9.39,1.74-4.08,4.99-8.16,9.97-12.31,15.05,2.33,1.39,4.24,1.28,5.93-.6,1.07-1.19,2.15-2.39,3.13-3.66,9.28-11.93,17.07-24.81,24.13-38.14,1.75-3.3,3.53-6.62,5.62-9.71,7.32-10.84,20.05-16.12,32.55-18.1,3.57-.57,7.24-1.66,10.84-1.9,0,0,7.24-.48,3.01-3.2-4.09-2.63-8.34-5.01-12.74-7.08-3.9-1.84-8.3-2.79-11.85-5.34-7.94-5.73-16.77-8.04-26.27-8.32-8.42-.25-16.08,2.73-23.55,6.27-9.9,4.69-19.17,10.73-29.84,13.75-.42.12-.74.61-1.32,1.11,1.13.8,2.1,1.41,2.99,2.12,4.26,3.35,8.55,6.66,12.69,10.15ZM283.48,162.07c2.04-.85,4.27-1.34,6.14-2.46,1.31-.78,2.51-2.2,3.09-3.6.69-1.68,1.54-1.74,2.85-1.17,4.43,1.96,10.75,3.83,13.72,7.91-3.81.06-7.59-.57-11.46-.29-4.02.29-8,.91-11.99,1.43-1.46.19-2.94.25-4.41.37-.1-.25-.2-.5-.31-.75.79-.49,1.53-1.09,2.38-1.44ZM272.87,153.04c2.06-.04,4.77,2.39,4.8,4.29.04,1.94-1.93,4.01-3.88,4.07-2.26.08-4.39-1.88-4.46-4.1-.07-2.28,1.55-4.24,3.54-4.27Z"/>
      <path class="cls-2" d="M257.11,276.89c1.05-1.58,1.34-3.62,1.43-5.47.09-1.97.03-3.94-.19-5.89-.03-.29-.07-.58-.11-.88-.33-2.45-.93-4.9-2.22-7.01-3.55-5.8-9.04-4.28-13.69-.7.87-6.87-2-11.63-7.36-14.93-4.68-2.88-10.4-2.36-13.36.7-6.88,7.12-13.78,14.22-20.81,21.19-1.54,1.53-3.67,2.48-5.94,3.97,1.2-4.42,2.19-8.04,3.17-11.66-.27-.21-.54-.42-.81-.63-3.36,2.11-7.08,3.83-10,6.44-3.67,3.29-5.88,7.66-5.28,12.89.27,2.3.62,4.9,3.33,5.58,3.61.91,7.15.51,9.9-2.35,6.48-6.76,12.87-13.61,19.33-20.39,2.34-2.45,4.7-4.9,7.22-7.16.62-.55,1.97-.37,2.7-.24-.63,3.57-5.09,5-6.5,8.22-1.83,4.18-2.83,8.74-3.93,13.2-.47,1.9-.69,4.14.28,5.93,1.2,2.2,3.86,3.34,6.1,4.15,2.86,1.03,4.41,1,6.66-1.25.38-.38.73-.78,1.1-1.18,5.63-6.15,11.25-12.31,16.94-18.53,4.04,3.63,3.33,8.13,3.59,12.15.1,1.55-1.8,3.22-2.62,4.57.08-.13,1.92-.35,2.21-.47.78-.31,1.5-.76,2.13-1.32,1.37-1.21,2.33-2.95,2.62-4.75.33-2.09-.16-4.16-.71-6.17-.5-1.83-1.75-4.72-1.14-6.5,3.88,5.82,4.58,13.32,3,20-.23.99,2.77-1.2,2.96-1.49ZM239.13,259.23c-.17.79-.49,1.56-1.01,2.3-.94,1.35-13.27,10.74-13.2,10.82-.22-.2-.45-.41-.67-.61.73-2.66,1.75-5.29,2.12-8,.37-2.7.08-5.49.34-8.31,1.51,2.47.51,6.48,5.32,7.56-1.05-3.32-1.62-6.04-2.77-8.48-1.1-2.32-2.83-4.34-3.88-6.76,3.28,3.27,8.3,5.18,8.02,11.13-.05,1.12.43,2.27.94,3.78.43-.26.87-.53,1.29-.81.1-.07.19-.13.29-.2.03-.02.07-.05.1-.08.12-.1.24-.2.35-.31,2.85-7.88-3.47-11.94-7.84-17.49.77.97,2.96,1.82,4.02,2.72,1.57,1.33,3.01,2.85,4.18,4.54,1.66,2.37,3.01,5.41,2.4,8.23Z"/>
      <path class="cls-2" d="M205.97,241.45c-1.6,4.31-2.85,8.83-5.09,12.79-1.33,2.36-1.24,4.34-.62,6.97,6.13-6.01,12.26-12.03,18.4-18.04l-.42-.39c-2.93,1.38-5.86,2.77-9.06,4.28v-8.79c-2.72-.13-2.67,1.74-3.21,3.18Z"/>
      <path class="cls-2" d="M65.82,373.6c-.53-.09-1.69,1.07-1.81,1.79-.12.71.71,1.58,1.51,3.14,1.33-1.51,2.07-2.34,2.8-3.17-.82-.63-1.59-1.6-2.5-1.76Z"/>
      <path class="cls-2" d="M222.83,213.59c-.54-1.18-1.08-2.35-1.61-3.53-.55.36-1.09.73-1.64,1.09.75,1.02,1.5,2.03,2.25,3.05.33-.2.67-.41,1-.61Z"/>
      <path class="cls-2" d="M179.64,223.33c-.74.5-1.31,1.23-1.94,1.88.42.35,1.02,1.09,1.21,1,.79-.39,1.45-1.04,2.56-1.91-.94-.51-1.62-1.1-1.83-.97Z"/>
      <g>
        <path class="cls-4" d="M153.47,239.62s-.02,0-.03,0c0,0,.02,0,.03,0Z"/>
        <path class="cls-4" d="M171.83,283.91c-4.21,2.66-8.73,4.47-13.76,4.52-.85,0-1.7-.92-2.56-1.42.67-.57,1.26-1.49,2.02-1.66,6.85-1.47,12.81-4.8,18.66-8.45,1.59-.99,2.09-2.07,2.06-3.88-.12-6.48-1.01-13.01.87-19.4.03-.09-.2-.24-.51-.61-.85.72-1.75,1.39-2.55,2.16-2.52,2.4-4.98,4.87-7.52,7.25-1.31,1.23-2.23,1.46-3.46-.56-2.45-3.99-3.22-8.33-3.21-12.77.01-6.01-.59-12.18,2.08-17.89.42-.9.85-1.79,1.3-2.66-1.2,1.04-2.34,2.16-3.46,3.23-2.58,2.47-5.17,5.71-8.1,7.84.37-.02.86.08.98.25.29.44.46,1.23.25,1.67-.72,1.52-1.39,3.17-2.51,4.38-6.57,7.16-12.83,14.69-20.02,21.19-13.69,12.39-27.85,24.28-42.02,36.13-3.31,2.77-4.68,5.76-4.56,9.9.07,2.35,1,3.34,3.07,2.45,3.49-1.5,7.12-2.93,10.16-5.13,4.11-2.96,7.75-6.58,11.53-9.98,3.12-2.81,6.16-5.72,9.24-8.58.19.15.37.31.56.47-8.68,11.73-18.89,21.2-29.64,30.91-8.4,7.59-15.75,16.04-21.82,25.6-2.86,4.51-4.11,9.44-3.78,14.78.18,2.87,1.53,4.19,4.34,3.46,2.46-.63,5.18-1.46,7-3.09,4.49-4.02,9-8.17,12.66-12.93,11.75-15.27,23.07-30.87,34.67-46.26,5.26-6.98,10.68-13.87,16.27-20.59,2.35-2.83,5.34-5.12,8.04-7.66.17.17.33.34.5.51-1.65,2.31-3.28,4.65-4.96,6.94-11.13,15.07-22.28,30.13-33.43,45.2-8.17,11.04-16.31,22.11-24.54,33.12-4.17,5.59-8.62,10.97-12.72,16.62-2.09,2.88-3.86,6.02-5.43,9.22-6.16,12.57-12.44,25.09-18.11,37.88-1.9,4.29-2.46,9.29-2.96,14.03-.42,3.95,2.29,5.71,5.86,3.94,2.74-1.36,5.34-3.28,7.56-5.4,11.03-10.51,20.3-22.53,29.37-34.71,8.55-11.49,15.54-23.94,22.4-36.47,7.75-14.16,15.54-28.31,23.4-42.41,1.79-3.22,3.95-6.24,5.94-9.34.2.14.4.28.61.41-1.59,4.02-3.04,8.1-4.81,12.03-1.6,3.57-3.49,7.02-5.36,10.46-8.24,15.12-16.59,30.18-24.74,45.35-2.57,4.78-4.81,9.76-6.95,14.76-1.57,3.68.11,5.82,4.05,4.84,2.45-.61,5.12-1.99,6.76-3.85,2.81-3.17,5.25-6.8,7.2-10.58,5.64-10.92,11.06-21.95,16.37-33.04,7.93-16.57,15.68-33.23,23.54-49.84.8-1.68,1.83-3.25,2.76-4.87.27.13.54.27.81.4-4.75,11.33-9.45,22.67-14.26,33.98-4.81,11.33-9.72,22.61-14.59,33.91.2.17.41.33.61.5,2.76-.91,5.54-1.79,8.29-2.75,1.98-.69,3.34-1.78,3.22-4.27-.07-1.45.47-2.99.97-4.41,2.68-7.63,5.4-15.26,8.21-22.84.55-1.47,1.59-2.77,2.4-4.14.33.14.66.29.99.43-3.48,10.7-6.96,21.4-10.59,32.56,5-1.87,7.49-5.76,8.93-9.9,4.25-12.24,8-24.66,11.95-37.01,1.33-4.15,2.59-8.32,4.03-12.43,2.6-7.37,5.36-14.68,7.92-22.06.4-1.15.06-2.57.06-4.34-2.91,1.91-5.19,3.45-7.52,4.91Z"/>
      </g>
      <path class="cls-4" d="M208.5,166.59c-7.34-4.69-14.25-10.1-20.15-16.53-5.22-5.68-9-14.65-16.38-17.88-1.89,2.03-.1,4.41,1.26,6.43,1.3,1.92,2.66,3.8,3.94,5.73,1.26,1.89,2.44,3.83,3.66,5.75-.38.31-.76.62-1.13.93l-1.19-1.49-2.05-2.54-1.58-1.84c-6.12,1.17-10.79,7.26-10.79,7.26l-.37.83s-.5-.23-.5-.23c-.3-.06-.54.15-.74.34-.25.25-.52.47-.8.68-1.26.98-2.64,1.79-3.59,3.11l-.15.28s-.25.56-.25.56c-.09.21-.32.43-.43.66-.17.37-.32.74-.46,1.12-.28.72-.54,1.44-.87,2.14.39.09,1.86.7,2.19.53-.95.49-2.16.27-3.09.81-.33.19-.61.47-.88.75-1.56,1.61-3.32,3.69-3.05,6.09.32,2.87-.4,5.54-.8,8.45-.06.43-.01.78.3,1.1-.27.37-.32.9-.26,1.49-.04,1.25.26,3.2,1.85,5.61l.54,1.48,3.43,7.09s12.3,16.04,20.07,16.86c5.17-6.06,11.15-11.44,17.73-16.31,2.86-2.12,5.64-4.36,8.26-6.77,1.05-.97,1.34-2.73,2.34-3.77,4.27-4.44,9.08-8.17,15.54-10.38-4.13-2.99-7.73-5.88-11.6-8.35ZM180.47,166.42c-7.04-1.46-14.28-1.97-21.03-4.79,6.94-.49,13.76-.12,20.31,2.29.59.22.89,1.21,1.33,1.84-.2.22-.4.45-.6.67ZM184.36,194.96c.56-3.32,12.42-9.29,17.61-8.8-5.48,4.52-11.32,6.81-17.61,8.8Z"/>
      <g>
        <path class="cls-5" d="M156.17,195.32c-.69.99-.85,1.43-1.16,1.64-12.91,8.85-26.51,16.48-40.88,22.69-2.15.93-2.1,1.76-1.01,3.28,2.34,3.24,5.33,5.57,9.36,6.12,1.17.16,2.75-.09,3.63-.79,6-4.78,11.84-9.77,17.79-14.61,3.49-2.84,7.1-5.54,10.65-8.3.22.27.43.53.65.8-7.88,9.73-18.05,16.8-29,23.65,4.1,4.18,9.15,5.72,14.03,7.47,2.28-2.84,4.41-5.46,6.5-8.09,4.73-5.93,9.42-11.89,14.18-17.8.64-.79,1.55-1.36,2.34-2.03.27.27.54.55.8.82-6.61,9.77-13.29,19.49-22.78,27.22,1.65.83,2.89,1.52,4.19,2.1,2.56,1.14,5.11,2.88,7.82.21.07-.07.22-.1.39-.11,2.93-2.13,5.52-5.37,8.1-7.84,1.12-1.07,2.26-2.19,3.46-3.23,3.05-5.97,6.76-11.38,10.99-16.34-7.76-.82-20.07-16.86-20.07-16.86Z"/>
        <path class="cls-5" d="M107.22,203.08c10.91-1.97,21.03-6.07,30.98-10.79,4.52-2.14,9.32-3.71,13.99-5.54-1.59-2.41-1.89-4.37-1.85-5.61,0-.07,0-.14-.01-.21,0-.05,0-.09,0-.14,0-.09,0-.18,0-.27,0-.03,0-.06,0-.09.01-.09.03-.18.05-.27,0-.02,0-.04.02-.06.02-.09.06-.17.09-.25,0,0,0-.01,0-.02-.61.71-1.16,1.65-1.88,1.92-.47.51-1.06.95-1.81,1.26-7.13,2.95-13.92,6.56-21.44,8.24-.68.24-1.37.41-2.09.52,0,.03,0,.06,0,.09-5.62.46-11.29,1.59-16.85,1.21-8.04-.55-16-2.24-24.01-3.36-1.57-.22-3.19-.11-4.79-.15.73,1.63,1.11,3.55,2.23,4.84,7.31,8.4,16.63,10.63,27.34,8.7Z"/>
        <path class="cls-5" d="M96.28,207.66c.12.73.09,1.2.28,1.55,2.95,5.58,10.36,8.9,16.48,7.21,2.39-.66,4.73-1.64,6.92-2.81,7.79-4.17,15.48-8.52,23.24-12.74,3.21-1.75,6.48-3.38,9.77-4.97.75-.36,1.69-.32,3.2-.57l-3.43-7.09c-17.94,8.8-35.2,19.44-56.46,19.43Z"/>
      </g>
    </g>
  </g>
  <g>
    <g>
      <path class="cls-6" d="M252.83,329.23c-2.12-1.39-4.29-.96-6.37.01-.27-.07-.54-.13-.82-.18-2.37-.39-4.67,1.35-5.05,3.42-1.92.8-3.41.62-4.97,0,1.16-1.52,1.29-3.89-.22-5.34-4.69-4.49-13.79-3.26-19.72-2.86-5.07.35-5.11,8.29,0,7.94.77-.05,1.95-.19,3.31-.32.25.33.55.63.91.88,4.89,3.38,10.72,6.81,16.42,8.62,3.7,1.17,6.49-.92,9.4-2.82,1.32,1.36,3.25,1.26,4.69.34.94-.15,1.85-.49,2.71-1.09,3.07-2.14,2.78-6.59-.29-8.6Z"/>
      <path class="cls-6" d="M365.6,411.23c-3.83-11.02-10.23-21.35-17.3-30.56-3.3-4.3-6.83-8.47-10.69-12.28-.93-.92-12.57-10.32-13.02-7.52.45-2.8-1.72-5.87-4.88-4.88-1.23.38-2.19.89-3.03,1.59l-.69.38c-4.6,1.93-2.71,9.52,2.11,7.65.15-.06.3-.12.45-.17.08,0,.16,0,.24-.02.27.27.58.52.91.77,1.72,1.25,3.98,1.64,5.83,2.65,2.21,1.21,4.1,2.87,5.9,4.61,3.45,3.35,6.66,6.95,9.64,10.74-1.91,1.07-3.19,3.44-1.67,5.47.03.04-.04.07-.16.1-4-1.04-8.57-.43-12.86-.09-.8-.14-1.6-.29-2.39-.46-5.87-1.27-11.53-3.37-16.99-5.84-7.8-3.53-17.87-9.02-25.73-2.39-7.16,6.04-5.52,17.69-3.51,25.69,2.31,9.21,6.08,18.4,11.93,25.94,5.63,7.26,12.17,14.36,21.31,14.36,3,0,16,3,32.94,4.58,4.58.43,8.81-2.03,12.92-4.05,3.41-1.67,7.48-3.33,8.8-7.2,3.11-9.14,3.08-20.04-.06-29.11Z"/>
    </g>
    <path class="cls-6" d="M432.98,329.27c-.33-2.02-3.03-3.43-4.88-2.77-1.74.62-3.49,1.25-5.23,1.86-.78.29-1.56.57-2.35.82-.69.43-.86.22-.52-.63-.61-1.64,2.46-7.93,3.01-9.7.99-3.12-2.99-6.53-5.83-4.48-7.52,5.42-15.05,10.85-22.9,15.8.22-.21.44-.43.66-.64,3.2-3.16,6.26-6.52,8.44-10.49,1.16-2.12,2.07-4.54,3.35-6.63,1.65-1.54,3.3-3.09,4.94-4.64,3.41-3.23-.91-8.16-4.81-6.23-2.63,1.3-4.53,3.26-6.09,5.56-5.73,5.36-11.5,10.67-17.35,15.89-1.03.92-2.08,1.82-3.11,2.73,3.65-4.43,7.19-8.94,10.74-13.45,3.08-3.92-1.82-9.24-5.61-5.61-3.82,3.65-7.86,7.21-11.57,11.02.4-1.12.73-2.29.98-3.5,1-4.99-6.65-7.12-7.65-2.11-1.81,9.05-9.34,15.32-14.03,22.91-1.72,2.79,1.18,7.05,4.48,5.83.38-.14.75-.28,1.12-.42-.72,1.68-1.24,3.48-1.47,5.49-.28,2.4,2.79,4.73,5.02,3.83.17-.07.33-.15.5-.22.07,1.28.81,2.57,1.88,3.35-.01.1-.04.19-.04.29-.14,2,.76,3.85,1.19,5.74.54,2.38.61,4.65.61,7.07,0,4.4,1.89,6.31,4.66,7.24.46.75,1.2,1.33,2.27,1.55,7.57,1.52,15.26,2.76,22.97,3.27,6.04.4,14.16.42,19.34-3.28,2-1.43,3.01-3.5,2.98-5.97-.03-1.95-.82-3.44.04-5.35.89-1.98,2.77-2.72,4.39-3.97,1.19-.92,2.18-2.05,2.89-3.29,2.13-.36,3.96-2.5,3.36-4.97-.49-1.98-1.59-3.55-3.12-4.48-.73-1.42-.84-2.95.4-4.65,1.07-1.46,2.83-2.44,4.01-3.84,2.27-2.71,2.91-5.5,2.36-8.91Z"/>
    <path class="cls-6" d="M243.48,431.12c-2.77,3.82-5.54,7.64-8.31,11.46-2,2.76,1.33,6.96,4.48,5.83,6.82-2.44,12.76-6.06,17.97-11.1l-6.63-3.86c-1.74,5.21-2.99,10.49-3.77,15.93l3.83-2.91c-1.84-.06-2.85.24-4.45,1.14l4.81,6.23c4.49-4.37,9.17-8.48,14.08-12.37h-5.61l.47.56-1.16-2.81c.19,1.92-.03,3.9-.1,5.82-.04,1.22.47,4.91-.31,5.87l6.63,3.86c1.1-3.49,2.42-6.83,4.05-10.12,2.26-4.56-4.59-8.59-6.85-4.01-1.92,3.89-3.54,7.87-4.85,12.01-1.14,3.62,4.09,6.98,6.63,3.86s2.46-6.58,2.61-10.65c.13-3.57.92-7.12-1.5-10.02-1.49-1.77-4.06-1.23-5.61,0-4.91,3.89-9.59,8-14.08,12.37-3.26,3.17.9,8.45,4.81,6.23l.44-.06c1.55.05,3.59-1.26,3.83-2.91.78-5.44,2.03-10.72,3.77-15.93,1.3-3.89-3.91-6.5-6.63-3.86-4.2,4.06-8.96,7.09-14.46,9.06l4.48,5.83c2.77-3.82,5.54-7.64,8.31-11.46,3-4.14-3.88-8.11-6.85-4.01h0Z"/>
    <path class="cls-6" d="M333.03,350.15l-1.4,2.13c-1.65,2.5.51,6.06,3.43,5.97,3.25-.1,6.49-.2,9.74-.29l-2.81-6.78c-1.21.99-2.6,1.69-4.03,2.29-3.99,1.69-1.44,7.12,2,7.4s6.44.06,9.69-.39c2.14-.3,3.27-3,2.77-4.88-.6-2.29-2.77-3.07-4.88-2.77-2.51.35-5.06.31-7.58.11l2,7.4c2.12-.9,3.86-2.09,5.64-3.53,2.7-2.21.44-6.87-2.81-6.78s-6.49.2-9.74.29l3.43,5.97,1.4-2.13c2.82-4.28-4.05-8.26-6.85-4.01h0Z"/>
    <path class="cls-6" d="M373.36,449.41c1.58.56,4.72,1.62,5.81,3.06l-.4-3.06-.29.75,1.82-2.37c-2.34,1.41-5.65,1.71-7.49,3.84s-1.28,5.09.39,7.22c2.16,2.75,4.67,5.37,7.07,7.91,1.9,2.01,3.89,3.79,6.83,2.79,4.81-1.64,2.74-9.31-2.11-7.65,1.69-.57,2.18,1.48.89-.75-.62-1.06-1.8-2.01-2.62-2.91-.47-.52-3.66-3.32-3.67-3.8l-1.16,2.81c1.33-1.37,4.27-1.44,5.88-2.6s2.66-3.27,2.11-5.23c-1.14-4.07-7.43-6.42-10.95-7.66-4.83-1.7-6.9,5.96-2.11,7.65h0Z"/>
    <path class="cls-6" d="M324.9,378.05c1.44,1.87,3.38,3.41,5.5,4.45,1.86.91,4.38.57,5.43-1.42.94-1.79.57-4.46-1.42-5.43-.41-.2-.82-.42-1.21-.66-.22-.13-.42-.28-.64-.42-.62-.4.29.29-.05-.03-.71-.68-1.4-1.32-2-2.1s-1.92-1.16-2.81-1.16c-.97,0-2.14.43-2.81,1.16-1.61,1.75-1.36,3.85,0,5.61h0Z"/>
    <path class="cls-2" d="M381.49,487.39c-.76-.6-1.74-.91-2.62-1.35-.23.26-.46.53-.69.79.53.84.89,1.87,1.62,2.47,3.07,2.54,6.21,4.99,9.41,7.37.58.43,1.53.35,2.31.51-.32-.8-.43-1.85-1-2.35-2.93-2.57-5.96-5.03-9.02-7.45Z"/>
    <path class="cls-2" d="M291.01,421.64c3.02,2.81,6.26,4.33,10.3,4.78-1.03-2.58-6.93-5.29-10.3-4.78Z"/>
    <path class="cls-2" d="M319.22,398.01c.47,0,.94-1.03,1.41-1.59-1.38-.56-2.77-1.11-4.48-1.8-.08,3.03,1.49,3.4,3.07,3.39Z"/>
    <path class="cls-2" d="M359.22,410.42c-.59-.91-1.38-1.69-2.1-2.52-.43.39-.86.79-1.29,1.18.84.89,1.67,1.77,2.51,2.66.31-.45.99-1.14.88-1.32Z"/>
    <path class="cls-6" d="M285.36,495.39c-1.74-12.67-5.71-25.34-8.62-37.8-.38-1.61-2.15-3.01-3.83-2.91-8.37.47-17.18.54-25.37-1.62-.66-.2-1.32-.39-1.98-.57-1.96-.61-3.88-1.36-5.74-2.28-2.34-1.15-4.38-2.84-6.73-3.96-.73-.35-1.55-.66-2.34-.84-.02,0-.06-.01-.11-.01.44-.42.87-.83,1.31-1.25,1.2-1.15,2.41-2.3,3.61-3.45,1.71-1.64,3.42-3.27,5.14-4.91.94-.88,1.88-1.78,2.8-2.68,3.66-3.58-1.92-9.14-5.61-5.61-4.4,4.29-8.98,8.39-13.86,12.13-.19.14-.77.5-1.36.88-.02-1.41-.45-2.75-1.14-4.02-.66-1.21-1.79-1.78-3-1.86,4.23-.79,8.45-1.69,12.64-2.71,4.96-1.21,2.86-8.87-2.11-7.65-15.21,3.72-30.65,5.8-46.3,6.24-4.66.13-5.15,6.24-1.06,7.8,4.26,1.62,8.61,2.45,13.09,2.54-.82,1.36-3.89,1.28-5.76,1.7-2.99.67-5.96,1.41-8.9,2.24-3.67,1.03-10.71,1.87-11.36,6.69-.59,4.33,3.69,5.75,7.09,5.93,2.99.15,6.02.06,9.02.09,1.4.01,2.79.03,4.19.04-2.2,1.55-4.79,2.74-6.92,3.89-4.07,2.2-8.15,4.4-12.22,6.6-2.79,1.51-2.5,6.73.95,7.25,4.64.7,9.18.97,13.86.41,4.12-.49,8.65-2.64,12.87-3.05-.33,3.89-13.6,11.55-15.32,12.69-3.06,2.03-2.18,7.64,2,7.4,4.68-.28,9.14-1.27,13.62-2.66,2.2-.68,4.39-1.43,6.59-2.11.87-.27,2.32-.88,3.76-1.32-1.04,2.86-2.59,5.56-4.3,8.08-.34.14-.68.28-1.02.42-4.59,1.88-2.97,9.03,2.11,7.65,0,0,.01,0,.02,0,5.21,2.79,12.86-2.54,17.22-6.96.85-.27,1.45-.54,2.09.72.32.63-.07,2.14-.1,2.82-.1,2.48-.11,4.62.81,6.96.8,2.03,2.62,3.34,4.88,2.77,6.43-1.63,10.53-7.59,16.3-10.08.81,1.87,1.11,3.81.85,6.12-.2,1.8-.55,3.45.32,5.16,1.84,3.62,6.48,3.18,9.64,1.82,3.85-1.66,6.78-5.19,7.63-9.34.03-.15.04-.4.03-.68.07.31.15.63.26.92.81,2.05,2.42,3.29,4.38,4.18,3.75,1.69,9.44,2.17,13.02-.16,3.82-2.49,3.49-7.65,2.94-11.64Z"/>
    <path class="cls-2" d="M550.47,518.98c-2.25-2.35-4.9-4.47-7.73-6.08-7.52-4.27-15.08-8.53-22.91-12.18-11.39-5.3-22.99-10.16-34.57-15.02-10.52-4.42-21.25-8.37-31.7-12.94-15.03-6.58-29.91-13.5-44.82-20.34-4.66-2.14-9.23-4.48-13.84-6.73.09-.21.17-.42.26-.62.58.13,1.18.2,1.74.39,16.8,5.6,32.52,13.76,48.77,20.67,14.69,6.24,29.49,12.23,44.37,18,4.55,1.77,9.54,2.35,14.44.67,2.66-.91,3.11-1.96,2.26-4.67-1.61-5.13-4.98-8.79-9.96-10.45-6.83-2.27-13.77-4.31-20.79-5.9-11.51-2.6-22.92-5.39-33.59-10.58-.85-.42-1.68-.9-2.52-1.35,6.02,1.39,11.82,3.2,17.72,4.54,3.17.72,6.52.91,9.78.82,1.73-.05,3.44-1.18,5.3-1.88-3.6-5.28-6.39-6.72-12.58-7.72-12.11-1.95-24.29-3.67-36.25-6.31-10.23-2.26-20.3-5.38-30.25-8.71-5.54-1.85-10.7-4.85-15.97-7.46-1.84-.91-3.27-2.34-3.22-4.63,3.22-.01,6.37.42,8.64-2.13-7.69-7.33-15.31-14.58-22.93-21.84.19-.23.38-.45.57-.68.5.3,1.05.53,1.48.9,6.55,5.65,13.09,11.3,19.61,16.99,1.41,1.23,2.58,3.39,4.1,3.64,1.68.27,3.65-1.12,5.46-1.88.98-.41,2.02-.86,2.79-1.56,1.33-1.21,2.47-2.63,3.64-3.9-5.67-2.87-11.01-5.28-16.06-8.2-5.06-2.92-10.52-5.44-13.93-10.55.49.03.82.29,1.19.49,8.72,4.65,17.36,9.48,26.21,13.88,4.27,2.12,8.59.83,12.37-1.79,1.92-1.33,3.48-3.08,3.1-5.61-15.3-2.08-29.73-6.17-42.69-14.42.09-.27.19-.55.28-.82.31.09.64.14.93.27,11.58,5.26,23.5,9.45,36.17,11.11,7.18.94,13.72-.65,18.82-6.08,1.1-1.16,1.41-3.06,2.08-4.62-1.67-.19-3.35-.65-5-.51-5.41.44-10.86,1.9-16.19,1.49-8.31-.63-16.53-2.41-24.76-3.86-1.62-.28-3.11-1.26-4.67-1.92.11-.35.23-.71.34-1.06,2.03.36,4.1.57,6.09,1.09,14.53,3.86,29.04,4.34,43.43-.5,6.23-2.09,11.7-5.41,14.74-11.6.57-1.17.51-2.65.74-3.99-1.29-.06-2.63-.37-3.85-.12-3.73.78-7.39,1.88-11.12,2.65-1.49.3-3.09.05-4.64.05l-.05-.8c1.31-.54,2.66-.99,3.92-1.63,5.22-2.66,10.57-5.12,15.58-8.14,4.8-2.9,8.04-7.25,9.26-12.91.57-2.65-.2-3.65-2.84-3-3,.74-5.87,1.97-8.84,2.86-3.36,1-6.76,1.84-10.14,2.76-.08-.27-.16-.55-.24-.82,2.12-1.31,4.21-2.66,6.35-3.93,8.98-5.31,16.16-12.08,18.34-22.81.22-1.1.09-2.79-.6-3.42-.59-.54-2.4-.32-3.34.18-8.01,4.3-15.94,8.75-23.89,13.15-.82.45-1.62.92-2.43,1.38.25-1.14.63-2.09,1.3-2.73,3.62-3.42,7.33-6.75,10.99-10.12,6.46-5.95,9.91-13.38,10.83-22.05.21-2.01-.62-3.43-2.48-4.27-1.85-.83-3.24-.25-4.43,1.26-.89,1.12-1.98,2.07-2.82,3.22-6.56,9-15.17,15.8-23.93,22.45-2.34,1.78-4.66,3.59-7.33,5.65.17-.71.16-.99.3-1.16,3.18-4.04,6.58-7.92,9.52-12.13,2.49-3.56,4.86-7.32,6.58-11.3,2.94-6.81,5.29-13.86,4.07-21.52-.3-1.85-.88-3.44-3.14-3.71-2.3-.27-4.03.27-4.84,2.66-.43,1.26-1.07,2.46-1.48,3.72-3.74,11.32-10.47,20.82-18.13,29.74-1.13,1.32-2.67,2.29-4.02,3.42-.24-.21-.49-.41-.73-.62.27-.89.45-1.81.81-2.65,1.68-3.93,3.74-7.73,5.04-11.78,1.29-4.03,1.98-8.27,2.61-12.47.23-1.55.02-3.36-2.18-4.06-3.49-1.11-4.6-.67-5.82,3.49-2.66,9.05-6.25,17.63-11.62,25.44-.98,1.43-1.5,3.18-2.24,4.78.18.11.37.22.55.33,2.6-2.2,5.2-4.4,8.06-6.83,1.49,3.06.43,5.41-.74,7.52-1.37,2.48-3.4,4.6-4.77,7.09-3.01,5.45-7.44,9.33-12.87,12.09-2.27,1.15-4.8,1.81-7.21,2.69,3.19-3.65,6.81-6.42,9.79-9.76,1.93-2.16,3.12-5.07,4.24-7.81.58-1.4.2-3.17.41-4.76.83-6.43,2.87-12.75,1.8-19.34-.25-1.55-.59-3.2-1.38-4.51-.47-.77-1.91-1.29-2.91-1.28-.65,0-1.58,1.03-1.89,1.8-.76,1.89-1.34,3.88-1.83,5.86-2.91,11.82-8.08,22.45-16.25,31.56-3.27,3.64-6.42,7.38-9.69,11.02-.92,1.02-2.07,1.84-3.11,2.76-.22-.15-.43-.3-.65-.44,1.94-3.89,4.28-7.68,3.77-13.05-2.73,2.84-5.15,4.97-7.13,7.46-4.49,5.65-8.47,11.72-14.29,16.2-1.94,1.49-3.69,3.22-5.81,5.1,1.72,1.19,3.01,2.1,4.32,2.99,7.26,4.96,14.1,10.41,19.43,17.47,6.61,8.76,13.41,17.41,19.45,26.55,7.88,11.93,7.93,24.42.9,37.39-4.32-5.33-9.46-8.21-15.92-8.74.96,1.37,2.22,2.29,3.51,3.19,1.74,1.22,3.69,2.22,5.19,3.68,1.67,1.63,1.05,3.17-1.22,3.46-1.4.17-2.87.11-4.26-.12-5.48-.92-10.93-1.95-16.81-3.01,3.03,3.92,9.05,4.36,10.93,10.27-5.39-.67-10.17-1.12-14.89-1.89-3.15-.52-6.21-2.02-9.34-2.12-3.65-.11-6.49-1.48-9.31-3.45-4.09-2.87-8.36-5.48-12.37-8.44-6.61-4.87-12.61-10.51-15.48-18.36-2.11-5.79-3.88-11.9-4.52-18-1.35-12.83,8.65-20.79,21.07-17.54,7.59,1.99,13.84,6.48,20.35,10.51,6.29,3.9,13.12,5.5,20.46,4.08,5.43-1.05,7.01-4.72,3.95-9.4-2.04-3.12-4.32-6.15-6.89-8.85-9.24-9.71-20.24-17.13-31.79-23.8-1.23-.71-2.5-1.4-3.6-2.29-5.55-4.49-11.03-9.06-16.58-13.55-5.99-4.84-12.34-9.2-19.5-12.08-8.47-3.41-17.24-4.39-26.42-3.1-6.12.86-12.41.54-18.62.7-3.68.1-6.93,1.21-9.89,3.45-1.71,1.29-1.68,2.43-.08,3.56,3.2,2.25,6.23,4.99,9.78,6.45,8.45,3.48,14.19,10.08,20.1,16.46,8.44,9.1,13.66,20.18,18.65,31.39,6.47,14.53,13.58,28.72,24.02,40.94.3.36.46.84.69,1.26-8.61-5.32-13.65-13.57-18.34-22.14-1.61.66-2.9,1.25-4.23,1.74-6.45,2.34-12.75,5.3-19.39,6.83-11.41,2.64-23.04,4.38-34.57,6.53-.62.12-1.18.58-1.77.88.4.62.66,1.44,1.22,1.83.78.54,1.76.9,2.7,1.07,2.9.51,5.82.89,8.73,1.31-4.02,1.19-8.07,2.16-12.18,2.62-12.7,1.42-25.41,1.94-38.06-.65-4.62-.95-9.21-2.1-13.86-2.85-2.87-.46-3.84,1.02-2.67,3.69,1.53,3.52,4.3,5.94,7.66,7.56,8.53,4.14,17.51,6.54,27.06,6.52,2.76,0,5.53,0,8.29,0-15.19,4.43-30.49,5.09-45.7.99-6.77-1.83-13.18-4.92-19.82-7.26-1.15-.4-3.43-.36-3.75.25-.69,1.29-.82,3.18-.46,4.65.33,1.38,1.35,2.82,2.49,3.72,3.89,3.09,7.67,6.53,12.03,8.79,10.08,5.24,21.2,6.63,32.39,7.03,5.28.18,10.58-.45,16.54-.74-12.86,5.17-25.31,9.24-38.82,8.43-5.79-.35-11.57-.82-17.36-1.11-.94-.05-2.35.3-2.74.94-.42.69-.2,2.18.31,2.92,1.05,1.51,2.33,2.96,3.8,4.06,4.81,3.59,10.32,5.55,16.24,6.43,12.65,1.87,25.04.83,37.17-3.26,1.43-.48,2.9-.88,4.37-1.23,1.44-.35,2.9-.59,4.36-.89.13.39.26.78.39,1.17-9.39,4.26-18.68,8.77-28.2,12.69-4.82,1.98-10.09,2.84-15.11,4.35-2.5.75-2.98,2.18-1.25,4.09,1.28,1.41,2.96,2.58,4.67,3.45,6.67,3.36,13.67,2.58,20.68,1.33,8.36-1.49,16.04-4.68,23.31-9.01,1.66-.99,3.63-1.47,5.45-2.19.1.24.2.48.31.72-7.35,6.64-15.44,12.21-24.41,16.49-1.28.61-2.36,1.66-3.53,2.51,1.03,1.37,1.88,2.97,3.15,4.05,1.02.87,2.56,1.54,3.89,1.57,3.87.11,7.86.39,11.61-.37,10.04-2.02,18.41-7.66,26.59-13.47-.71,1.2-1.42,2.41-2.12,3.61-3.06,3.33-6.14,6.64-9.24,9.93-3.11,3.3-2.45,6.27,2.1,7.13,3.02.57,6.44.43,9.42-.39,7.14-1.94,12.74-6.66,18.19-11.44,1.12-.98,2.31-2.04,3.61-2.69-.03,3.19-2.71,5.52-4.78,7.61-2.78,2.78-2.53,4.56,1.23,6,1.05.4,2.22.67,3.34.69,6.45.11,11.73-2.7,16.16-7.08,1.8-1.78,3.42-3.82,5.3-5.5,1.37,1.91,2.53,3.81,5.08,4.59,13.78,4.19,23.47-11.1,18.76-22.83-2.38-5.93-4.23-12.1-5.94-18.26-1.65-5.96-2.79-12.06-4.18-18.19,2.47-.65,4.02-.6,5.02,2.05,1.48,3.91,3.6,7.56,5.24,11.42,2.38,5.58,4.61,11.22,6.82,16.87,1.6,4.09.95,8.21,0,12.36-.63,2.76.41,4.77,2.23,4.51,4.81-.68,9.52-1.84,13.01-5.57,2.72-2.91,2.69-5.55.51-8.9-6.32-9.72-12.56-19.49-18.75-29.3-.72-1.14-.93-2.6-1.37-3.92.29-.15.58-.3.87-.46.65.63,1.42,1.18,1.94,1.91,5.18,7.37,10.34,14.76,15.48,22.16,1.93,2.78,3.64,5.74,5.77,8.36.8.98,2.92,2.05,3.74,1.64,2.66-1.31,5.53-2.84,7.32-5.09,2.81-3.52,2-5.01-.62-7.58-5.99-5.87-11.84-11.9-17.65-17.95-1.61-1.67-2.87-3.67-4.29-5.52.19-.15.38-.31.56-.46,3.79,3.36,7.65,6.64,11.34,10.1,3.77,3.54,7.34,7.3,11.08,10.89,1.38,1.32,3.05,2.47,5.04,1.28,3.57-2.14,6.7-4.63,7.7-9.09.93-4.12,1.05-4.17-3.05-4.5-.98-.08-1.96-.18-2.93-.3-8.06-1.01-12.59-6.84-17.24-12.55,3.38,1.63,6.54,3.58,9.62,5.65,3.32,2.23,6.83,4.06,10.92,3.82,1.81-.11,3.56-1.12,5.99-1.94,2.16.84,5.25,1.96,8.28,3.23,2.03.85,4.21,1.59,5.91,2.91,11.75,9.17,23.42,18.45,35.04,27.78,6.26,5.03,12.37,10.25,18.57,15.36,3.02,2.48,6.39,4.29,10.37,4.49,1.05.05,2.41-.23,3.1-.9.38-.37-.06-2.06-.6-2.83-3.37-4.79-6.5-9.79-11.37-13.33-1.66-1.21-3.07-2.78-4.6-4.18.19-.23.39-.46.58-.69,2.08-2.47,22.51,20.09,24.3,22.97,1.96,3.15,4.77,4.82,8.26,5.28,3.14.41,6.4,1.23,9.87-.74-5.45-5.56-13.38-8.73-18.43-14.48,5.06.53,9.9,4.12,14.28,6.57,6.84,3.83,13.62,7.78,20.64,11.26,4.69,2.32,9.87,3.22,15.09,1.77,1.34-.37,2.48-1.49,3.71-2.26-.79-1.12-1.33-2.64-2.4-3.3-4.68-2.92-9.44-5.72-14.31-8.31-6.45-3.43-13.06-6.58-19.56-9.92-14.51-7.45-29.01-14.9-43.48-22.43-3.79-1.97-7.45-4.19-11.1-6.39-.67-.4-1.05-1.28-1.57-1.94,1.02-.34,1.62-.28,2.14-.03,6.61,3.14,13.42,5.91,19.76,9.53,16.53,9.42,33.85,17.23,50.87,25.67,8.46,4.2,16.4,9.48,24.98,13.37,9.64,4.37,19.67,7.92,29.67,11.44,5.53,1.95,11.29,3.27,17.02,4.57,3.59.81,7.28.78,10.67-1.17,4.09-2.35,5-6.39,1.75-9.76ZM333.29,355.71c-.29-2.67,2-4.93,6.29-6.16-2.07,2.03-4.2,4.12-6.29,6.16ZM340.62,358.52c-.16-.48-.33-.95-.49-1.43,2.48-1.08,4.95-2.15,7.43-3.23.17.37.34.75.51,1.12-2.48,1.18-4.96,2.36-7.44,3.54ZM408.65,376.91c-10.49.95-20.82-.37-31.12-2.21-1.58-.28-3.17-.55-4.71-1-1.01-.3-1.93-.92-2.9-1.4l.18-.8c15.93-1.47,31.85-2.94,47.78-4.41.74,4.96-3.33,9.29-9.23,9.83ZM423.47,358.07c-5.23,3.43-11.13,5.04-17.22,5.86-.35.05-.69.09-1.04.13-7.5.9-25.21,1.94-25.21,1.94l-1.92.19c-2.3.01-4.61.06-6.91-.05-.73-.03-1.43-.65-2.15-1,.61-.65,1.11-1.67,1.85-1.89,2.97-.89,6.04-1.47,9.04-2.29,10.95-2.99,21.9-5.98,32.82-9.08,4.1-1.17,8.13-2.59,12.16-3.98,2.12-.73,2.86.39,2.94,2.13.16,3.51-1.46,6.16-4.35,8.06ZM428.86,327.33c1.49-.71,2.1.05,2.25,1.54.5,4.86-1.09,8.79-5.16,11.58-7.65,5.26-16.08,8.83-25.02,11.18-9.02,2.37-18.07,4.66-27.11,6.93-4.12,1.03-5.53.46-6.44-2.57,4.48-1.6,8.87-3.01,13.14-4.74,11.33-4.59,22.35-9.77,32.79-16.22,4.9-3.03,10.34-5.19,15.55-7.69ZM418.85,314.92c.43-.25,2.01.54,2.29,1.18,1.1,2.57.13,5.01-1.45,6.98-1.83,2.28-3.86,4.51-6.16,6.28-13.55,10.4-28.89,17.2-45.2,21.96-.57.17-1.18.19-1.78.29-.85-1.89.19-2.56,1.54-3.41,9.51-5.96,19.01-11.93,28.39-18.09,2.43-1.59,4.23-4.15,6.66-5.74,5.11-3.36,10.41-6.42,15.72-9.45ZM367.47,339.37c4.99-4.02,10.11-7.91,14.82-12.25,3.99-3.68,7.34-8.03,11.2-11.86,3.22-3.19,6.77-6.04,10.15-9.07,1.11-1,2.11-2.12,3.24-3.11.44-.39,1.09-.55,1.64-.81.15.64.63,1.41.41,1.88-1.87,4.13-3.82,8.22-5.84,12.28-.9,1.82-1.91,3.59-3.03,5.29-.72,1.09-1.55,2.23-2.6,2.96-7.67,5.35-15.29,10.79-23.17,15.81-3.52,2.24-7.62,3.56-11.46,5.3-.19-.34-.38-.69-.57-1.03.79-2.68,3.23-3.8,5.2-5.39ZM357.66,337.3c.29-1.52.22-3.26.95-4.53,3.86-6.71,7.91-13.31,11.94-19.92.49-.81,1.27-1.44,1.91-2.16l.79.38c.49,3.41.34,7.05-1.61,9.84-4.06,5.79-8.7,11.18-13.11,16.73-.29-.11-.58-.23-.87-.34ZM327.09,372.98c2.33.34,3.14,2.16,3.84,4.07-.2.2-.41.41-.61.61-1.27-1.33-2.54-2.66-3.81-4,.19-.23.39-.46.58-.68ZM237.01,338.88c-2.54-1.61-5.02-3.34-7.64-4.8-2.63-1.47-5.37-2.76-8.14-3.95-2.76-1.18-5.62-2.13-9.04-3.41,3.84-2.81,7.43-2.42,10.8-2.59,2.25-.11,4.57.41,6.79.93.66.15,1.65,1.44,1.52,1.96-.92,3.58,1.45,5.4,3.59,7.44,1.1,1.05,2.05,2.25,3.07,3.38-.32.35-.63.7-.95,1.05ZM248.6,338.27c-2.42.02-4.57-2.12-4.57-4.55,0-2.21,1.5-3.37,4.39-3.39,2.38-.02,4.22,1.62,4.26,3.8.04,1.96-2.09,4.12-4.08,4.14ZM257.76,431.76c-.31,1.83-.42,3.47-.88,5.01-1.3,4.33-2.7,8.63-4.17,12.9-.31.89-.92,1.8-1.65,2.37-.46.36-1.51.35-2.08.06-.34-.17-.55-1.31-.33-1.8,2.7-6.08,5.48-12.12,8.26-18.16.05-.1.27-.13.85-.37ZM240.56,445.74c-.97.97-2.78,1.11-4.2,1.64-.2-.3-.39-.6-.59-.91.36-.64.56-1.47,1.09-1.9,5.15-4.23,9.22-9.34,12.71-15.07-1.12,6.45-4.49,11.71-9.01,16.23ZM181.73,436.57c-.77-.39-1.27-1.32-1.9-2,.87-.47,1.7-1.28,2.6-1.36,9.21-.88,18.42-1.69,27.64-2.43,3.19-.26,6.46.08,9.57-.51,3.52-.67,6.89-2.09,10.98-3.4-3.69,3.77-7.78,5.59-12.44,6.43-1.9.34-3.76.94-5.62,1.49-5.09,1.51-10.09,3.62-15.29,4.43-5.27.82-10.65-.16-15.55-2.65ZM180.61,455.66c-2.6-.38-5.14-1.3-7.63-2.2-.85-.31-1.46-1.3-2.24-2.03,2.91-3.3,6.69-2.51,9.91-3.16,11.47-2.3,22.65-5.44,33.2-10.57.56-.27,1.17-.45,1.72-.73,1.39-.71,2.6-.33,3.06,1.02.25.73-.07,2.09-.64,2.62-6.23,5.75-13.39,10-21.4,12.84-5.19,1.84-10.49,3-15.99,2.21ZM189.56,472.31c-5.13,1.82-10.45,2.67-15.47-.57-1.15-.74-2.09-1.81-3.52-3.07,26.18-9.59,49.81-22.49,70.39-40.62.22.11.45.23.67.34-1.05,1.57-1.86,3.39-3.2,4.66-3.78,3.6-8.46,6.46-11.49,10.57-3.15,4.26-6.25,8.43-10.29,11.82-8.23,6.9-16.86,13.23-27.09,16.86ZM201.2,487.41c-3,2.05-6.75,3.17-10.31,4.17-3.52.99-6.62-.46-8.26-3.37-.36-.64.05-1.77.28-2.64.09-.34.63-.61,1.01-.83,12.05-6.89,22.11-16.47,33.11-24.77,5.14-3.88,9.47-8.84,14.3-13.43,3.9,3.6,4,3.66.93,8.46-8.21,12.84-18.48,23.79-31.06,32.39ZM220.89,495.52c-1.99,1.91-4.11,3.72-6.36,5.32-4.13,2.95-9.08,2.02-12.74-2.78,8.98-10.17,18.09-20.16,26.79-30.5,3.64-4.33,6.4-9.41,9.55-14.16.57-.86,1.06-1.79,1.63-2.76,1.7,1.07,3.18,2.01,5.17,3.26-2.34,5.43-4.57,11.15-7.24,16.65-4.41,9.1-9.42,17.86-16.81,24.96ZM242.95,498.05c-2.35,4.26-5.39,7.8-10.11,9.52-1.88,0-3.76-.2-5.52-.87-.56-.21-1.27-.49-1.7-.94-.06-.13-.11-.27-.14-.42-.4-1.57.15-3.29.63-4.78.46-1.42,1.05-2.79,1.73-4.1,9.07-12.21,15.31-25.91,20.4-40.15.73-2.04,1.77-1.81,3.2-1.53,1.45.28,3.15.23,2.8,2.58-.59,3.95-.85,7.97-1.68,11.87-2.1,9.96-4.66,19.8-9.63,28.82ZM264.33,459.2c.41,4.34.63,8.71.77,13.07.25,7.92.46,15.85-1.64,23.52-.16,2.71-.4,5.44-1.16,8.05-.7,2.41-1.91,4.76-3.89,6.36-2.3,1.86-5.54,2.28-8.31,1.28-.94-.34-1.86-.88-2.41-1.72-1.7-2.61.52-8.62,1.35-11.3,1.27-4.07,3.08-7.97,4.05-12.14,2.26-9.7,3.64-19.6,5.41-29.41.09-.48.36-.95.62-1.37.86-1.38,2.11-2.64,2.55-4.13,1.11-3.73,1.86-7.57,2.76-11.36.33-1.4.69-2.8,1.04-4.2.4.1.8.21,1.2.31-1.41,6.45.17,13.5-3.89,19.22.51,1.23,1.4,2.49,1.53,3.82ZM279.63,479.01c.72,2.97,1.71,5.89,2.5,8.86.47,1.76.87,3.54,1.1,5.35.61,4.76-.21,12.4-5.57,14.25-3.61,1.25-7.36-.82-8.78-4.24-2.24-5.41.74-11.64.58-17.2-.29-9.78-.65-19.56-.99-29.46,1.93-.23,3.85-.45,5.88-.69.15.26.41.54.48.86,1.71,7.4,3.02,14.89,4.81,22.28ZM372.95,444.39c3.63,1.07,7.03,1.33,9.45,4.23-3.17,1.28-7.75-.63-9.45-4.23ZM377.68,461.34c3.71.36,6.74,2.14,9.4,4.76-3.81-.19-6.84-2.01-9.4-4.76Z"/>
  </g>
</svg>